<svg width="97" height="29" viewBox="0 0 97 29" fill="#55596D" xmlns="http://www.w3.org/2000/svg">
<g clip-path="url(#clip0_9628_659)">
<path d="M60.3857 22.373C54.8136 26.3419 46.7373 28.4594 39.7837 28.4594C30.0336 28.4594 21.2561 24.9745 14.6155 19.1786C14.0938 18.7228 14.5613 18.1017 15.1873 18.4566C22.3538 22.486 31.2148 24.91 40.368 24.91C46.5411 24.91 53.3319 23.6758 59.576 21.1146C60.5193 20.7274 61.3081 21.7116 60.3857 22.373Z" />
<path d="M62.7002 19.8116C61.9906 18.9323 57.9921 19.3961 56.1974 19.6018C55.6506 19.6664 55.5671 19.2066 56.0596 18.8758C59.2443 16.7099 64.4699 17.3351 65.0793 18.0611C65.6886 18.7911 64.9207 23.853 61.928 26.269C61.4689 26.64 61.0307 26.4424 61.2352 25.9503C61.9072 24.3289 63.4139 20.6949 62.7002 19.8116Z" />
<path d="M56.3207 3.59094V1.48553C56.3207 1.16689 56.5712 0.953125 56.8717 0.953125H66.6259C66.939 0.953125 67.1894 1.17093 67.1894 1.48553V3.28844C67.1852 3.59094 66.9223 3.98621 66.4548 4.61138L61.4003 11.5851C63.2785 11.5407 65.2611 11.8109 66.964 12.7386C67.348 12.9483 67.4523 13.2549 67.4816 13.5574V15.804C67.4816 16.1105 67.131 16.4695 66.7637 16.2839C63.7627 14.7633 59.7767 14.598 56.4585 16.3001C56.1204 16.4775 55.7656 16.1226 55.7656 15.8161V13.6824C55.7656 13.3396 55.7698 12.7547 56.1246 12.2344L61.9804 4.11931H56.8842C56.5712 4.11931 56.3207 3.90555 56.3207 3.59094Z" />
<path d="M20.7477 16.7244H17.7801C17.4963 16.7042 17.2709 16.4985 17.25 16.2364V1.51863C17.25 1.22419 17.5046 0.990257 17.8218 0.990257H20.5891C20.8771 1.00235 21.1066 1.21612 21.1275 1.48233V3.40624H21.1817C21.9038 1.54686 23.2603 0.679688 25.0884 0.679688C26.9458 0.679688 28.1061 1.54686 28.9409 3.40624C29.6588 1.54686 31.2907 0.679688 33.0396 0.679688C34.2834 0.679688 35.6441 1.17579 36.4746 2.289C37.4138 3.52724 37.2218 5.32612 37.2218 6.90316L37.2176 16.192C37.2176 16.4864 36.963 16.7244 36.6458 16.7244H33.6824C33.386 16.7042 33.1481 16.4743 33.1481 16.192V8.39147C33.1481 7.77034 33.2065 6.22153 33.0646 5.63265C32.8434 4.64448 32.1798 4.36618 31.32 4.36618C30.6021 4.36618 29.8508 4.83002 29.5461 5.57215C29.2414 6.31429 29.2706 7.55657 29.2706 8.39147V16.192C29.2706 16.4864 29.016 16.7244 28.6988 16.7244H25.7354C25.4349 16.7042 25.2011 16.4743 25.2011 16.192L25.197 8.39147C25.197 6.7499 25.4766 4.33391 23.3688 4.33391C21.236 4.33391 21.3195 6.68939 21.3195 8.39147V16.192C21.3195 16.4864 21.0649 16.7244 20.7477 16.7244Z" />
<path d="M75.5922 0.679688C79.9956 0.679688 82.3788 4.33391 82.3788 8.98034C82.3788 13.4695 79.7451 17.0309 75.5922 17.0309C71.2681 17.0309 68.9141 13.3767 68.9141 8.82304C68.9141 4.24115 71.2973 0.679688 75.5922 0.679688ZM75.6172 3.68454C73.4301 3.68454 73.2924 6.56436 73.2924 8.35921C73.2924 10.1581 73.2632 13.9978 75.5922 13.9978C77.892 13.9978 78.0005 10.9002 78.0005 9.01261C78.0005 7.77034 77.9462 6.28606 77.5581 5.10832C77.2242 4.08385 76.5605 3.68454 75.6172 3.68454Z" />
<path d="M88.0872 16.7244H85.1322C84.8358 16.7042 84.5979 16.4743 84.5979 16.192L84.5938 1.47023C84.6188 1.19999 84.865 0.990257 85.1656 0.990257H87.9161C88.1749 1.00235 88.3878 1.17176 88.4462 1.40166V3.65227H88.5004C89.331 1.63963 90.4955 0.679688 92.5449 0.679688C93.8763 0.679688 95.1744 1.14352 96.0092 2.41403C96.7855 3.59177 96.7855 5.57216 96.7855 6.99593V16.2606C96.7521 16.5187 96.5058 16.7244 96.2137 16.7244H93.2377C92.9664 16.7042 92.7411 16.5106 92.7118 16.2606V8.26644C92.7118 6.65713 92.9038 4.30164 90.8545 4.30164C90.1324 4.30164 89.4688 4.76952 89.139 5.47939C88.7217 6.37883 88.6674 7.27423 88.6674 8.26644V16.192C88.6632 16.4864 88.4045 16.7244 88.0872 16.7244Z" />
<path d="M48.5489 9.69479V9.07366C46.4035 9.07366 44.1371 9.51732 44.1371 11.9615C44.1371 13.1998 44.8008 14.0387 45.9402 14.0387C46.775 14.0387 47.5221 13.5426 47.9937 12.7359C48.5781 11.7437 48.5489 10.812 48.5489 9.69479ZM51.5415 16.6846C51.3453 16.854 51.0615 16.8661 50.8403 16.7532C49.8553 15.9626 49.68 15.5956 49.1374 14.8414C47.5096 16.4466 46.3576 16.9266 44.2456 16.9266C41.7497 16.9266 39.8047 15.4383 39.8047 12.4576C39.8047 10.1304 41.1111 8.54528 42.9684 7.77088C44.5795 7.08521 46.8292 6.96421 48.5489 6.77464V6.40357C48.5489 5.72193 48.6031 4.91526 48.1899 4.32639C47.8268 3.79802 47.1339 3.58022 46.5245 3.58022C45.3934 3.58022 44.3834 4.14085 44.1371 5.30246C44.087 5.5606 43.8909 5.8147 43.6237 5.8268L40.7438 5.52833C40.5017 5.4759 40.2346 5.28633 40.3014 4.92736C40.965 1.55547 44.1162 0.539062 46.9378 0.539062C48.3819 0.539062 50.2685 0.910132 51.4079 1.96687C52.8521 3.26965 52.7143 5.00803 52.7143 6.89967V11.3686C52.7143 12.7117 53.2903 13.3006 53.8329 14.0266C54.0249 14.2848 54.0667 14.5953 53.8246 14.7889C53.2194 15.277 52.1425 16.1845 51.5498 16.6927L51.5415 16.6846Z" />
<path d="M9.65042 9.69479V9.07366C7.50507 9.07366 5.23868 9.51732 5.23868 11.9615C5.23868 13.1998 5.90232 14.0387 7.04177 14.0387C7.87654 14.0387 8.62365 13.5426 9.0953 12.7359C9.67963 11.7437 9.65042 10.812 9.65042 9.69479ZM12.643 16.6846C12.4469 16.854 12.1631 16.8661 11.9418 16.7532C10.9568 15.9626 10.7815 15.5956 10.2389 14.8414C8.61113 16.4466 7.45916 16.9266 5.3472 16.9266C2.85125 16.9266 0.90625 15.4383 0.90625 12.4576C0.90625 10.1304 2.21266 8.54528 4.07001 7.77088C5.68111 7.08521 7.9308 6.96421 9.65042 6.77464V6.40357C9.65042 5.72193 9.70468 4.91526 9.29147 4.32639C8.92834 3.79802 8.23549 3.58022 7.62611 3.58022C6.495 3.58022 5.48494 4.14085 5.23868 5.30246C5.18859 5.5606 4.99242 5.8147 4.7253 5.8268L1.84536 5.52833C1.60328 5.4759 1.33615 5.28633 1.40293 4.92736C2.06657 1.55547 5.21781 0.539062 8.03932 0.539062C9.48346 0.539062 11.37 0.910132 12.5095 1.96687C13.9536 3.26965 13.8159 5.00803 13.8159 6.89967V11.3686C13.8159 12.7117 14.3919 13.3006 14.9345 14.0266C15.1265 14.2848 15.1682 14.5953 14.9261 14.7889C14.3209 15.277 13.2441 16.1845 12.6514 16.6927L12.643 16.6846Z" />
</g>
<defs>
<clipPath id="clip0_9628_659">
<rect width="96" height="28" fill="white" transform="translate(0.84375 0.5)"/>
</clipPath>
</defs>
</svg>
