<svg width="52" height="53" viewBox="0 0 52 53" fill="none" xmlns="http://www.w3.org/2000/svg">
<path d="M0 26.5C0 12.1406 11.6406 0.5 26 0.5C40.3594 0.5 52 12.1406 52 26.5C52 40.8594 40.3594 52.5 26 52.5C11.6406 52.5 0 40.8594 0 26.5Z" fill="#FF492C"/>
<path d="M36.0116 20.9669H32.2291C32.3309 20.3737 32.6986 20.0417 33.4427 19.6655L34.1381 19.3114C35.3827 18.674 36.0471 17.9525 36.0471 16.7751C36.0471 16.0359 35.7592 15.4516 35.1878 15.0311C34.6164 14.6106 33.9432 14.4026 33.1548 14.4026C32.5449 14.3954 31.9461 14.5661 31.4318 14.8939C30.9136 15.2126 30.5282 15.6242 30.2891 16.1377L31.3831 17.2354C31.8083 16.3767 32.424 15.9562 33.2345 15.9562C33.921 15.9562 34.3418 16.3103 34.3418 16.8016C34.3418 17.2133 34.1381 17.5541 33.3497 17.9525L32.9023 18.1694C31.9323 18.6607 31.2591 19.2229 30.8693 19.8603C30.4795 20.4977 30.2891 21.2988 30.2891 22.2682V22.5338H36.0116V20.9669Z" fill="white"/>
<path d="M35.5116 24.3398H29.2487L26.1172 29.7577H32.3801L35.5116 35.18L38.6431 29.7577L35.5116 24.3398Z" fill="white"/>
<path d="M26.6543 33.3744C22.668 33.3744 19.4214 30.1298 19.4214 26.1461C19.4214 22.1624 22.668 18.9179 26.6543 18.9179L29.1303 13.7435C28.3149 13.5814 27.4856 13.4999 26.6543 13.5C19.665 13.5 14 19.1613 14 26.1461C14 33.1309 19.665 38.7922 26.6543 38.7922C29.3328 38.7972 31.9429 37.9474 34.1043 36.3666L31.367 31.6215C30.0575 32.752 28.3848 33.3741 26.6543 33.3744Z" fill="white"/>
</svg>
