<svg width="157" height="25" viewBox="0 0 157 25" fill="#55596D" xmlns="http://www.w3.org/2000/svg">
<path d="M147.26 20.8003C146.132 21.9913 144.854 22.7014 143.25 23.0257C142.168 23.2456 141.22 23.2918 140.119 23.1772C138.661 23.0266 137.458 22.556 136.284 21.6738C135.324 20.9551 134.637 20.1774 134.037 19.1352C133.573 18.3284 133.303 17.5737 133.153 16.6548C132.943 15.3799 132.998 14.2582 133.332 13.0116C134.095 10.1761 136.219 8.16623 139.08 7.56815C140.715 7.22676 142.168 7.26184 143.783 7.68109C144.934 7.9797 145.848 8.48281 146.718 9.2965C147.268 9.80816 147.658 10.3224 148.004 10.988C148.413 11.7752 148.578 12.5401 148.532 13.4266H143.427C143.317 12.7395 142.989 12.1919 142.438 11.7709C141.724 11.2242 140.803 11.1806 140.04 11.6546C139.519 11.9806 139.177 12.4238 138.992 13.0116C138.552 14.4122 138.533 15.7153 138.924 17.1297C139.091 17.7243 139.372 18.1906 139.82 18.615C140.33 19.1044 140.966 19.3055 141.664 19.202C142.097 19.1386 142.449 18.9487 142.74 18.6193C143.046 18.2796 143.22 17.9151 143.301 17.4642C143.357 17.1468 143.388 16.8781 143.405 16.5564H148.786C148.894 18.1863 148.379 19.6178 147.26 20.8003Z" />
<path d="M126.688 5.71286H132.27V1.75132H126.688V5.71286Z" />
<path d="M126.688 22.7459H132.27V7.74939H126.688V22.7459Z" />
<path d="M115.124 9.33196C115.858 8.68682 116.558 8.23163 117.444 7.82008C118.886 7.15099 120.327 7.04233 121.853 7.48981C123.489 7.97153 124.668 9.12746 125.184 10.7608C125.432 11.5454 125.539 12.2419 125.539 13.065V22.7437H119.61V14.0396C119.61 13.7486 119.575 13.5022 119.489 13.2233C119.337 12.7236 119.008 12.3557 118.528 12.1521C117.477 11.7037 116.282 12.1007 115.705 13.0898C115.464 13.5022 115.354 13.9086 115.354 14.3878V22.7437H109.612V7.7465H114.999L115.124 9.33196Z" />
<path d="M49.1012 9.33196C49.8353 8.68682 50.5354 8.23163 51.4195 7.82008C52.8622 7.15099 54.305 7.04233 55.8295 7.48981C57.4665 7.97153 58.6452 9.12746 59.1614 10.7608C59.4092 11.5454 59.5165 12.2419 59.5165 13.065V22.7437H53.5879V14.0396C53.5879 13.7486 53.5513 13.5022 53.4669 13.2233C53.3136 12.7236 52.9849 12.3557 52.5037 12.1521C51.4535 11.7037 50.2586 12.1007 49.6829 13.0898C49.441 13.5022 49.3311 13.9086 49.3311 14.3878V22.7437H43.5898V7.7465H48.976L49.1012 9.33196Z" />
<path d="M84.286 17.2321C84.7135 17.3048 85.0712 17.3946 85.4817 17.5324C85.825 17.6453 86.0609 17.9123 86.1358 18.2656C86.2176 18.6515 86.1094 19.0177 85.8335 19.2958C85.5533 19.5807 85.2339 19.745 84.8404 19.8066C84.3141 19.8913 83.8473 19.8477 83.3457 19.6646C83.103 19.5773 82.9105 19.4669 82.7112 19.3018C82.4548 19.0845 82.2896 18.8355 82.1899 18.5138C82.1065 18.2408 82.0733 17.9995 82.0784 17.7138H76.6113V18.0338C76.6113 18.5506 76.6914 18.9886 76.872 19.4721C77.1462 20.1993 77.5218 20.7615 78.089 21.292C78.8292 21.9876 79.6016 22.4214 80.5751 22.7012C82.5962 23.2796 84.4163 23.3942 86.4936 23.0742C87.4679 22.9245 88.2719 22.6609 89.1483 22.2049C89.5341 22.0038 89.8433 21.7959 90.1763 21.5153C91.6531 20.2695 92.2008 18.3683 91.6105 16.5245C91.3874 15.8297 91.0348 15.2941 90.4854 14.8149C89.7325 14.1595 88.9703 13.742 88.013 13.4614C87.8035 13.4006 87.6246 13.3493 87.4134 13.2911C86.2423 12.9642 85.2365 12.7486 84.0339 12.569C83.7119 12.521 83.4411 12.4688 83.1234 12.3944C82.9769 12.3593 82.8551 12.3183 82.7188 12.2558C82.3824 12.1035 82.2334 11.7056 82.385 11.3685C82.3935 11.3506 82.4012 11.3343 82.4105 11.3172C82.5911 10.9929 82.8585 10.7816 83.2111 10.678C83.8354 10.4966 84.4103 10.512 85.0227 10.7217C85.6103 10.9227 85.9791 11.4644 85.9536 12.0881H91.2213C91.2162 11.4378 91.1174 10.8885 90.8994 10.2776C90.6762 9.65814 90.3372 9.1867 89.822 8.77857C89.374 8.42092 88.949 8.17793 88.415 7.97001C87.8954 7.76723 87.4372 7.6406 86.8879 7.54392C85.5822 7.31803 84.4589 7.25215 83.137 7.33087C82.3816 7.3745 81.7445 7.46862 81.0052 7.64231C80.0105 7.87761 79.209 8.26349 78.405 8.89665C77.722 9.43483 77.2748 10.0637 76.9886 10.8868C76.8583 11.2599 76.7962 11.591 76.7791 11.9837C76.7493 12.6417 76.8439 13.2021 77.0866 13.8139C77.521 14.9091 78.2926 15.6851 79.3845 16.1223C79.9372 16.3439 80.4218 16.4894 81.0052 16.6092C82.155 16.8479 83.1285 17.0336 84.286 17.2321Z" />
<path d="M18.9383 16.2784H15.1073V11.3577H17.5968C18.0695 11.3577 18.4698 11.3466 18.9425 11.3201C19.5975 11.2841 20.1417 10.9898 20.5318 10.4602C20.7387 10.1787 20.8554 9.89461 20.9048 9.54723C20.9457 9.25461 20.9517 9.00477 20.9227 8.71215C20.8162 7.61696 19.9135 6.79557 18.819 6.79557H15.1073V22.7451H8.76562V1.75H19.1316C19.5438 1.75 19.8922 1.7577 20.3035 1.7808C23.0536 1.92882 25.3192 3.46294 26.4843 5.9699C27.0907 7.27471 27.2968 8.52905 27.1409 9.96135C26.8122 12.9765 24.7127 15.3218 21.7633 15.9712C20.7856 16.1868 19.939 16.2784 18.9383 16.2784Z" />
<path d="M102.192 7.46106C101.602 7.36694 101.098 7.32844 100.501 7.32844C99.9029 7.32844 99.3995 7.36694 98.8084 7.46106C97.0948 7.73058 95.7066 8.42277 94.4554 9.62919C93.1166 10.922 92.3833 12.4519 92.2155 14.3094C92.1133 15.4499 92.201 16.433 92.5067 17.5359C92.9752 19.2283 93.855 20.5357 95.2432 21.6035C96.1571 22.3094 97.0659 22.7321 98.1918 22.9785C98.9915 23.1548 99.6823 23.2275 100.501 23.2275C101.318 23.2275 102.01 23.1548 102.811 22.9785C103.936 22.7321 104.844 22.3094 105.758 21.6035L102.551 18.0921C102.041 19.2301 100.712 19.7374 99.5784 19.2249C99.0563 18.9888 98.6858 18.6174 98.4499 18.0921C98.2327 17.607 98.1058 17.1723 98.0274 16.6452C97.869 15.592 97.8869 14.6773 98.0922 13.6309C98.1969 13.0876 98.3775 12.6444 98.679 12.1815C99.3382 11.171 100.687 10.8887 101.695 11.55C101.958 11.7237 102.15 11.9171 102.322 12.1815C102.624 12.6444 102.805 13.0876 102.909 13.6309C103.112 14.6773 103.132 15.592 102.974 16.6452C102.895 17.1723 102.768 17.607 102.551 18.0921L105.758 21.6035C107.147 20.5357 108.027 19.2283 108.495 17.5359C108.801 16.433 108.887 15.4499 108.786 14.3094C108.618 12.4519 107.887 10.922 106.547 9.62919C105.295 8.42106 103.908 7.73058 102.192 7.46106Z" />
<path d="M75.9994 21.5704C75.9159 20.3349 75.8691 19.2885 75.8444 18.0487C75.812 16.4196 75.7924 15.0455 75.7814 13.4172C75.7746 12.5385 75.6783 11.7967 75.4594 10.9462C75.1724 9.83134 74.5226 8.98428 73.5218 8.42129C72.9171 8.08161 72.3627 7.87284 71.6864 7.72567C69.5333 7.26278 67.6332 7.22428 65.4639 7.60246C64.8541 7.70856 64.3499 7.85572 63.7776 8.09358C62.4558 8.64289 61.5453 9.64396 61.1212 11.0155C60.9585 11.54 60.915 12.0157 60.9772 12.5625C60.9891 12.6626 61.0138 12.7473 61.059 12.8388L66.0823 12.962C66.0695 12.6403 66.1112 12.3682 66.2194 12.0662C66.3838 11.6059 66.7074 11.279 67.1656 11.1113C67.8393 10.8624 68.4883 10.8529 69.1714 11.0771C69.6202 11.2251 69.9387 11.5503 70.0784 12.0029C70.1661 12.2861 70.1227 12.565 69.9524 12.8072C69.8042 13.0211 69.6211 13.1648 69.3783 13.2581C69.2284 13.3154 69.1007 13.3573 68.9474 13.3984C68.249 13.5875 67.6528 13.7176 66.9399 13.8365C66.3753 13.9297 65.9 14.0179 65.3404 14.1325C64.5799 14.284 63.9445 14.4517 63.2078 14.6912C62.5333 14.9103 62.0018 15.2217 61.4806 15.7034C60.8026 16.3263 60.4151 17.0647 60.2856 17.9811C60.2005 18.592 60.2201 19.1242 60.3546 19.7257C60.7064 21.2898 61.7872 22.4465 63.3211 22.8949C65.0211 23.3903 66.6163 23.309 68.2575 22.6433C69.0564 22.3208 69.6645 21.8733 70.2138 21.2076L69.8595 18.6296C69.6066 19.0232 69.2923 19.2919 68.8673 19.4801C68.4687 19.6572 68.1085 19.7505 67.6749 19.795C67.3138 19.8309 67.0004 19.8044 66.6504 19.706C66.3659 19.6273 66.1436 19.4938 65.9417 19.2782C65.7714 19.0934 65.6701 18.8949 65.6181 18.6485C65.5389 18.2703 65.6624 17.9066 65.9562 17.656C66.153 17.4874 66.3454 17.3745 66.5865 17.2855C67.1699 17.0699 67.6681 16.9081 68.2652 16.7379C68.9874 16.5334 69.5853 16.3118 70.2666 15.9969C70.3339 16.5454 70.3305 17.0151 70.2547 17.561C70.1994 17.9614 70.0784 18.2908 69.8595 18.6296L70.2138 21.2076C70.3237 21.5738 70.4251 21.8801 70.5494 22.2386C70.6201 22.4397 70.7121 22.5954 70.8518 22.752H76.3852C76.1493 22.3798 76.0292 22.0119 75.9994 21.5704Z" />
<path d="M42.486 21.5704C42.4026 20.3349 42.3557 19.2885 42.331 18.0487C42.2978 16.4196 42.2791 15.0455 42.268 13.4172C42.262 12.5385 42.1658 11.7967 41.9461 10.9462C41.659 9.83134 41.0101 8.98428 40.0085 8.42129C39.4038 8.08161 38.8493 7.87284 38.1731 7.72567C36.02 7.26278 34.1198 7.22428 31.9497 7.60246C31.3416 7.70856 30.8357 7.85572 30.2642 8.09358C28.9424 8.64289 28.0319 9.64396 27.6078 11.0155C27.446 11.54 27.4017 12.0157 27.4647 12.5625C27.4758 12.6626 27.5005 12.7473 27.5456 12.8388L32.5689 12.962C32.557 12.6403 32.5979 12.3682 32.706 12.0662C32.8704 11.6059 33.1941 11.279 33.6523 11.1113C34.3268 10.8624 34.975 10.8529 35.6572 11.0771C36.1069 11.2251 36.4262 11.5503 36.5668 12.0029C36.6528 12.2861 36.6094 12.565 36.439 12.8072C36.29 13.0211 36.1069 13.1648 35.865 13.2581C35.7151 13.3154 35.5873 13.3573 35.4332 13.3984C34.7356 13.5875 34.1386 13.7176 33.4266 13.8365C32.8627 13.9297 32.3867 14.0179 31.8262 14.1325C31.0665 14.284 30.432 14.4517 29.6936 14.6912C29.0208 14.9103 28.4893 15.2217 27.9672 15.7034C27.2893 16.3263 26.9026 17.0647 26.7723 17.9811C26.6863 18.592 26.7067 19.1242 26.8421 19.7257C27.1922 21.2898 28.2747 22.4465 29.8069 22.8949C31.5086 23.3903 33.1021 23.309 34.7441 22.6433C35.5422 22.3208 36.152 21.8733 36.7013 21.2076L36.347 18.6296C36.0941 19.0232 35.779 19.2919 35.3531 19.4801C34.9554 19.6572 34.5942 19.7505 34.1624 19.795C33.7996 19.8309 33.4879 19.8044 33.137 19.706C32.8525 19.6273 32.6302 19.4938 32.4292 19.2782C32.258 19.0934 32.1567 18.8949 32.1047 18.6485C32.0264 18.2703 32.149 17.9066 32.4429 17.656C32.6388 17.4874 32.8312 17.3745 33.0731 17.2855C33.6565 17.0699 34.1556 16.9081 34.7527 16.7379C35.4749 16.5334 36.0719 16.3118 36.7541 15.9969C36.8206 16.5454 36.8172 17.0151 36.7414 17.561C36.686 17.9614 36.5642 18.2908 36.347 18.6296L36.7013 21.2076C36.8104 21.5738 36.9117 21.8801 37.0369 22.2386C37.1067 22.4397 37.1987 22.5954 37.3384 22.752H42.8719C42.6359 22.3798 42.5167 22.0119 42.486 21.5704Z" />
</svg>
