<svg width="113" height="30" viewBox="0 0 113 30" fill="none" xmlns="http://www.w3.org/2000/svg">
<g clip-path="url(#clip0_9657_1045)">
<g clip-path="url(#clip1_9657_1045)">
<path d="M-0.976562 5.69141H7.33323C8.89692 5.69141 10.119 6.08289 10.9644 6.76715C11.9176 7.56148 12.4555 8.72234 12.4555 10.1147C12.4555 11.726 11.7951 12.7541 10.4515 13.3657V13.4395C12.2104 14.0262 13.2135 15.5898 13.2135 17.4962C13.2135 19.305 12.5293 20.7223 11.3809 21.5779C10.4277 22.2622 9.15677 22.6049 7.49436 22.6049H-0.96181V5.69141H-0.976562ZM6.5128 12.315C7.41719 12.315 8.05266 11.827 8.05266 10.8239C8.05266 9.87071 7.3684 9.38274 6.48897 9.38274H3.62939V12.2911H6.51166L6.5128 12.315ZM6.92812 18.8647C7.9301 18.8647 8.68698 18.2543 8.68698 17.1286C8.68698 15.9552 7.89266 15.3924 6.90315 15.3924H3.62826V18.8625L6.92812 18.8647ZM14.0407 5.70162H18.3914V22.6389H14.0407V5.70162Z" fill="white" fill-opacity="0.7"/>
<path d="M19.25 16.5948C19.25 12.7821 21.7181 10.1914 25.5309 10.1914C29.3436 10.1914 31.7629 12.7821 31.7629 16.5948C31.7629 20.4303 29.3436 22.9982 25.5309 22.9982C21.7181 22.9982 19.25 20.4337 19.25 16.5948ZM27.4622 16.5948C27.4622 14.4933 26.7779 13.1486 25.4821 13.1486C24.1862 13.1486 23.553 14.4683 23.553 16.5948C23.553 18.7213 24.1884 20.0411 25.4821 20.0411C26.7779 20.066 27.4622 18.7452 27.4622 16.5948Z" fill="white" fill-opacity="0.7"/>
<path d="M32.3125 16.5948C32.3125 12.7821 34.7806 10.1914 38.5934 10.1914C42.4061 10.1914 44.8254 12.7821 44.8254 16.5948C44.8254 20.4303 42.4061 22.9982 38.5934 22.9982C34.7806 22.9982 32.3125 20.4337 32.3125 16.5948ZM40.5247 16.5948C40.5247 14.4933 39.8404 13.1486 38.5446 13.1486C37.2487 13.1486 36.6155 14.4683 36.6155 16.5948C36.6155 18.7213 37.2509 20.0411 38.5446 20.0411C39.8404 20.066 40.5247 18.7452 40.5247 16.5948Z" fill="white" fill-opacity="0.7"/>
<path d="M45.7031 10.5354H49.7462V12.3442H49.82C50.6143 10.9257 51.7264 10.1689 53.4512 10.1689C54.9661 10.1689 56.1156 10.9269 56.7023 12.2455H56.776C57.7542 10.6568 59.0489 10.1689 60.515 10.1689C63.3258 10.1689 64.523 12.2455 64.523 15.0075V22.633H60.2699V15.7904C60.2699 14.5445 59.8784 13.7479 58.8038 13.7479C57.7531 13.7479 57.2152 14.7261 57.2152 16.0458V22.6444H53.0109V15.8018C53.0109 14.5558 52.6194 13.7592 51.5448 13.7592C50.494 13.7592 49.9562 14.7374 49.9562 16.0571V22.6557H45.7031V10.5592V10.5354ZM69.8994 21.0432H69.8506V22.6069H65.8177V5.67188H70.0583V11.7814H70.1321C70.9264 10.7306 72.0135 10.17 73.5783 10.17C76.6081 10.17 78.367 12.907 78.367 16.5473C78.367 20.6529 76.4606 23.0245 73.3082 23.0245C71.9636 23.0245 70.6189 22.389 69.887 21.0444L69.8994 21.0432ZM74.0299 16.5224C74.0299 14.5672 73.3207 13.3223 72.026 13.3223C70.7312 13.3223 69.8994 14.5683 69.8994 16.5224C69.8994 18.4514 70.7301 19.7224 72.026 19.7224C73.3218 19.7224 74.0299 18.4764 74.0299 16.5224ZM78.8435 16.5473C78.8435 12.7833 81.3366 10.1439 84.9531 10.1439C86.7618 10.1439 88.1304 10.7056 89.2061 11.7076C90.5996 13.0523 91.235 15.1777 91.1862 17.6469H83.0728C83.243 19.1618 83.9772 19.9198 85.2481 19.9198C85.9811 19.9198 86.6416 19.5771 86.9105 18.7714H90.9922C90.283 21.5334 88.1326 22.9246 85.0915 22.9246C81.3525 22.9496 78.8345 20.4316 78.8345 16.5473H78.8435ZM83.0716 15.3014H86.9332C86.8594 13.8353 86.0538 13.0773 85.0518 13.0773C83.8784 13.0773 83.243 13.9079 83.0716 15.3014ZM96.001 12.612H96.0748C96.9542 10.9258 98.1037 10.2903 99.5448 10.2903C99.8875 10.2903 100.107 10.3391 100.229 10.4128V14.128H100.131C97.6384 13.6878 96.1599 14.8611 96.1599 17.5981V22.633H91.9068V10.5592H95.9397V12.6018L96.001 12.612Z" fill="white" fill-opacity="0.7"/>
<path d="M100.721 22.6306H104.802C104.95 23.1435 105.486 23.6575 106.513 23.6575C107.882 23.6575 108.346 22.8019 108.346 21.556V20.6765H108.248C107.564 21.4708 106.685 22.045 105.34 22.045C102.725 22.045 100.477 20.116 100.477 16.3508C100.477 12.8808 102.334 10.1914 105.145 10.1914C106.756 10.1914 107.761 10.8518 108.396 11.8776H108.47V10.5579H112.499V21.0181C112.499 22.9472 111.815 24.4643 110.813 25.3437C109.762 26.2969 108.248 26.6635 106.535 26.6635C103.358 26.6635 101.111 25.3438 100.718 22.6306H100.721ZM108.516 16.1284C108.516 14.6135 107.807 13.405 106.561 13.405C105.364 13.405 104.606 14.4808 104.606 16.1284C104.606 17.7398 105.364 18.9143 106.561 18.9143C107.807 18.9143 108.516 17.7171 108.516 16.1284Z" fill="white" fill-opacity="0.7"/>
</g>
</g>
<defs>
<clipPath id="clip0_9657_1045">
<rect width="113" height="30" fill="white"/>
</clipPath>
<clipPath id="clip1_9657_1045">
<rect width="114.383" height="23.1489" fill="white" transform="translate(-1 3)"/>
</clipPath>
</defs>
</svg>
