<svg width="106" height="30" viewBox="0 0 106 30" fill="none" xmlns="http://www.w3.org/2000/svg">
<g clip-path="url(#clip0_9657_1007)">
<g clip-path="url(#clip1_9657_1007)">
<path d="M76.8125 24.3124C73.2087 24.3124 70.9694 22.2219 70.9694 18.8524C70.9694 15.3553 73.0358 13.1796 76.3631 13.1796H76.6423C77.0596 13.1796 77.6343 13.1933 78.4193 13.2914V9.07031H80.7696V23.9319C80.7696 23.9319 78.5364 24.3124 76.8125 24.3124ZM76.7914 15.0328C74.5146 15.0328 73.4075 16.2635 73.4075 18.7937C73.4075 21.0655 74.7434 22.4776 76.8894 22.4776C77.302 22.4776 77.7745 22.4503 78.4186 22.3951V15.1842C77.7752 15.0805 77.2564 15.0328 76.7914 15.0328ZM44.6184 23.9714L38.2695 12.8762L38.2675 23.9714H36.0547V9.92531H39.1526L45.5015 20.9217L45.4988 9.92531H47.7408V23.9714H44.6184ZM64.8417 24.1876C63.7728 24.1876 62.6583 24.0676 61.3313 23.8119L61.1876 23.7846V21.8224L61.3973 21.8674C62.5677 22.1176 63.5781 22.331 64.5892 22.331C65.4055 22.331 67.3071 22.2028 67.3071 20.9994C67.3071 19.9903 65.9931 19.7367 64.9378 19.5342L64.871 19.5205C64.6736 19.4837 64.4877 19.4462 64.3311 19.4067C62.7829 19.0044 61.1311 18.3996 61.1311 16.3221C61.1311 14.2958 62.7325 13.1346 65.5253 13.1346C66.8659 13.1346 67.8389 13.2778 68.6212 13.3951L69.0011 13.451V15.3553L68.7989 15.3185C67.9138 15.1555 66.8761 14.9878 65.8787 14.9878C64.7696 14.9878 63.4535 15.1958 63.4535 16.1837C63.4535 17.0039 64.5306 17.2385 65.7779 17.5105C67.5223 17.8883 69.6846 18.3628 69.6846 20.7464C69.6846 22.933 67.9212 24.1876 64.8417 24.1876ZM87.3677 24.1876C84.935 24.1876 82.6821 23.758 82.6821 20.6476C82.6821 17.2624 86.166 17.2624 88.2487 17.2624C88.4557 17.2624 89.4348 17.308 89.735 17.321C89.7323 15.4221 89.7085 14.9694 86.9585 14.9694C85.8685 14.9694 84.6579 15.1849 83.589 15.3771L83.3847 15.4139V13.5389L83.5223 13.5096C84.7614 13.2574 85.9563 13.1346 87.1744 13.1346C89.8392 13.1346 92.0969 13.4033 92.0969 16.7142V23.9346L91.9349 23.953C90.0891 24.1603 88.6232 24.1876 87.3677 24.1876ZM88.1902 18.9376C86.1817 18.9376 84.9371 19.2335 84.9371 20.7062C84.9371 22.4108 86.5248 22.5519 88.0145 22.5519C88.5701 22.5519 89.5703 22.4803 89.876 22.4585V18.9962C89.4457 18.9778 88.3257 18.9376 88.1902 18.9376ZM54.3893 24.1876C51.9532 24.1876 49.701 23.758 49.701 20.6476C49.701 17.2624 53.1849 17.2624 55.2669 17.2624C55.4746 17.2624 56.4557 17.308 56.7566 17.321C56.7539 15.4221 56.7274 14.9694 53.9774 14.9694C52.8867 14.9694 51.6761 15.1849 50.6072 15.3771L50.4029 15.4139V13.5389L50.5439 13.5096C51.7445 13.261 52.9672 13.1354 54.1932 13.1346C56.8574 13.1346 59.1158 13.4033 59.1158 16.7142V23.9346L58.9531 23.953C57.108 24.1603 55.6421 24.1876 54.3893 24.1876ZM55.2084 18.9376C53.2006 18.9376 51.9587 19.2335 51.9587 20.7062C51.9587 22.4108 53.5437 22.5519 55.0334 22.5519C55.5917 22.5519 56.5919 22.4803 56.8976 22.4585V18.9962C56.4639 18.9778 55.3439 18.9376 55.2084 18.9376Z" fill="white" fill-opacity="0.7"/>
<mask id="mask0_9657_1007" style="mask-type:luminance" maskUnits="userSpaceOnUse" x="93" y="12" width="11" height="17">
<path d="M93.6406 12.5H103.872V28.8636H93.6406V12.5Z" fill="#231F20"/>
</mask>
<g mask="url(#mask0_9657_1007)">
<path d="M101.464 28.7458V24.1381C100.547 24.2662 100.061 24.2662 99.667 24.2662C98.7356 24.2662 97.7014 24.0637 96.9007 23.7256C95.108 22.979 94.0391 21.0835 94.0391 18.6515C94.0391 17.4378 94.3346 15.2185 96.3104 14.0226C97.3024 13.4294 98.4728 13.1758 100.233 13.1758C100.863 13.1758 101.714 13.2235 102.536 13.2712L103.871 13.3408V27.6781L101.464 28.7458ZM100.058 15.0296C97.6694 15.029 96.4588 16.2494 96.4588 18.6515C96.4588 21.7442 98.2644 22.394 99.7827 22.394C100.152 22.394 100.568 22.394 101.488 22.2767V15.0965C100.767 15.0487 100.435 15.0296 100.058 15.0296Z" fill="white" fill-opacity="0.7"/>
</g>
<mask id="mask1_9657_1007" style="mask-type:luminance" maskUnits="userSpaceOnUse" x="16" y="1" width="19" height="24">
<path d="M16.0078 1.60156H34.3908V24.0907H16.0078V1.60156Z" fill="#0996C7"/>
</mask>
<g mask="url(#mask1_9657_1007)">
<path d="M25.5552 1.60156L17.7813 22.9902C17.6852 23.2536 17.5169 23.4845 17.2959 23.6565C17.0748 23.8286 16.8098 23.9349 16.5312 23.9632V23.9734H24.7491C25.3925 23.9734 25.9433 23.5636 26.1483 22.9909L33.925 1.60156H25.5552Z" fill="white" fill-opacity="0.7"/>
</g>
<path d="M15.8663 23.6557C16.3429 23.6557 16.7602 23.4184 17.0155 23.0591C17.0421 23.0216 17.1354 22.8907 17.2014 22.7128L20.0528 14.8637L18.3847 10.2798C18.2876 10.0477 18.1302 9.84581 17.9289 9.69509C17.7276 9.54438 17.4898 9.4503 17.2399 9.42262C16.9901 9.39494 16.7375 9.43466 16.5082 9.53767C16.2788 9.64067 16.0812 9.80321 15.9357 10.0084C15.9085 10.0459 15.7975 10.213 15.7498 10.3548L12.8984 18.2012L14.574 22.8034C14.6827 23.0564 14.863 23.2719 15.0927 23.4234C15.3223 23.5749 15.5913 23.6556 15.8663 23.6557Z" fill="white" fill-opacity="0.7"/>
<mask id="mask2_9657_1007" style="mask-type:luminance" maskUnits="userSpaceOnUse" x="-2" y="8" width="19" height="24">
<path d="M-1.69531 8.41406H16.6877V31.4575H-1.69531V8.41406Z" fill="#0996C7"/>
</mask>
<g mask="url(#mask2_9657_1007)">
<path d="M16.4608 9.08203H8.15239C7.50899 9.08203 6.95818 9.48976 6.75052 10.0652L-1.02344 31.4539H7.34626L15.1209 10.0659C15.2218 9.78764 15.4031 9.54574 15.6417 9.37101C15.8803 9.19628 16.1655 9.09664 16.4608 9.08476V9.08203Z" fill="white" fill-opacity="0.7"/>
</g>
</g>
</g>
<defs>
<clipPath id="clip0_9657_1007">
<rect width="106" height="30" fill="white"/>
</clipPath>
<clipPath id="clip1_9657_1007">
<rect width="105.532" height="30" fill="white"/>
</clipPath>
</defs>
</svg>
