<svg width="30" height="30" viewBox="0 0 30 30" fill="none" xmlns="http://www.w3.org/2000/svg">
<g clip-path="url(#clip0_9657_991)">
<path d="M8.08504 6.46146V14.1195C9.02268 14.1195 9.40617 13.8153 9.40617 12.8009V7.77999C9.40617 6.76565 9.02268 6.46146 8.08504 6.46146Z" fill="white" fill-opacity="0.7"/>
<path d="M26.7438 12.6488H21.9841V7.25401C21.9841 6.74503 21.7254 6.43978 21.2084 6.43978C20.691 6.43978 20.4325 6.74503 20.4325 7.25401V22.6746C20.4325 23.2854 20.691 23.5397 21.2084 23.5397C21.7254 23.5397 21.9841 23.2854 21.9841 22.6746V16.7199H26.7438V22.4711C26.7438 25.0666 25.4505 26.8991 21.4151 26.8991C17.3797 26.8991 15.4139 25.3715 15.4139 22.4711V7.45774C15.4139 4.60768 17.3797 3.08075 21.4151 3.08075C25.4505 3.08075 26.7438 4.91293 26.7438 7.45774V12.6488ZM14.3791 13.3103C14.3791 16.1602 12.9823 17.6872 9.6714 17.6872H8.27438V26.7968H3.25617V3.18253H9.6714C12.9823 3.18253 14.3791 4.70937 14.3791 7.55934V13.3103ZM0 30H30V0H0V30Z" fill="white" fill-opacity="0.7"/>
</g>
<defs>
<clipPath id="clip0_9657_991">
<rect width="30" height="30" fill="white"/>
</clipPath>
</defs>
</svg>
