<svg width="84" height="45" viewBox="0 0 84 45" fill="#55596D" xmlns="http://www.w3.org/2000/svg">
<path d="M27.4412 29.8915H23.758V44.7071H27.4412V29.8915Z" />
<path d="M57.14 34.1368C56.9918 34.0587 55.8076 33.3458 54.046 33.3458C51.6601 33.3458 50.0093 35.0285 50.0093 37.2975C50.0093 39.4989 51.5913 41.2527 54.046 41.2527C55.7773 41.2527 56.9813 40.5552 57.14 40.4664V44.443C56.6826 44.5744 55.4261 44.97 53.7811 44.97C49.6406 44.97 46.0088 42.071 46.0088 37.2975C46.0088 32.8733 49.2988 29.6285 53.7811 29.6285C55.5148 29.6285 56.7935 30.056 57.14 30.1602V34.1368Z" />
<path d="M18.6946 34.1368C18.5465 34.0587 17.3623 33.3458 15.6006 33.3458C13.2148 33.3458 11.564 35.0285 11.564 37.2975C11.564 39.4989 13.146 41.2527 15.6006 41.2527C17.332 41.2527 18.536 40.5552 18.6946 40.4664V44.443C18.2373 44.5744 16.9808 44.97 15.3358 44.97C11.1953 44.97 7.56348 42.071 7.56348 37.2975C7.56348 32.8733 10.8535 29.6285 15.3358 29.6285C17.0695 29.6285 18.3481 30.056 18.6946 30.1602V34.1368Z" />
<path d="M68.7267 33.4014C66.5416 33.4014 64.9187 35.1469 64.9187 37.2975C64.9187 39.4527 66.5416 41.1971 68.7267 41.1971C70.9096 41.1971 72.5371 39.4527 72.5371 37.2975C72.5371 35.1469 70.9096 33.4014 68.7267 33.4014ZM76.4396 37.2975C76.4396 41.5358 73.2161 44.97 68.7267 44.97C64.2374 44.97 61.0186 41.5358 61.0186 37.2975C61.0186 33.0663 64.2374 29.6285 68.7267 29.6285C73.2161 29.6285 76.4396 33.0663 76.4396 37.2975Z" />
<path d="M41.4087 33.259C41.3539 33.2412 39.8034 32.8066 38.5294 32.8066C37.0535 32.8066 36.2509 33.3087 36.2509 34.0204C36.2509 34.9228 37.3336 35.2378 37.9391 35.432L38.9552 35.76C41.3457 36.5321 42.4354 38.1936 42.4354 39.9983C42.4354 43.7203 39.2107 44.9708 36.392 44.9708C34.4332 44.9708 32.598 44.6049 32.4172 44.5658V41.1565C32.7416 41.2394 34.2862 41.7071 35.8951 41.7071C37.7279 41.7071 38.5702 41.1636 38.5702 40.324C38.5702 39.5732 37.841 39.1398 36.9275 38.8484C36.7047 38.7726 36.3699 38.6661 36.1412 38.5903C34.0902 37.9319 32.3799 36.7086 32.3799 34.2561C32.3799 31.485 34.4239 29.6246 37.8189 29.6246C39.612 29.6246 41.2991 30.0663 41.4087 30.0959V33.259Z" />
<path d="M3.6575 13.9694C3.6575 12.9486 2.83617 12.1209 1.82933 12.1209C0.8225 12.1209 0 12.9486 0 13.9694V17.8584C0 18.8851 0.8225 19.714 1.82933 19.714C2.83617 19.714 3.6575 18.8851 3.6575 17.8584V13.9694Z" />
<path d="M13.7017 8.86487C13.7017 7.84408 12.8804 7.01395 11.8735 7.01395C10.8655 7.01395 10.0442 7.84408 10.0442 8.86487V17.8589C10.0442 18.8857 10.8655 19.7134 11.8735 19.7134C12.8804 19.7134 13.7017 18.8857 13.7017 17.8589V8.86487Z" />
<path d="M23.7464 1.88099C23.7464 0.860197 22.925 0.03125 21.9182 0.03125C20.9102 0.03125 20.0889 0.860197 20.0889 1.88099V21.5543C20.0889 22.581 20.9102 23.4099 21.9182 23.4099C22.925 23.4099 23.7464 22.581 23.7464 21.5543V1.88099Z" />
<path d="M33.7903 8.86487C33.7903 7.84408 32.9689 7.01395 31.9621 7.01395C30.9541 7.01395 30.1328 7.84408 30.1328 8.86487V17.8589C30.1328 18.8857 30.9541 19.7134 31.9621 19.7134C32.9689 19.7134 33.7903 18.8857 33.7903 17.8589V8.86487Z" />
<path d="M43.8236 13.9696C43.8236 12.9489 43.0081 12.1211 42.0059 12.1211C40.9991 12.1211 40.1777 12.9489 40.1777 13.9696V17.8586C40.1777 18.8853 40.9991 19.7143 42.0059 19.7143C43.0081 19.7143 43.8236 18.8853 43.8236 17.8586V13.9696Z" />
<path d="M43.8274 13.9695C43.8274 12.9487 43.0061 12.121 41.9993 12.121C40.9924 12.121 40.1699 12.9487 40.1699 13.9695V17.8585C40.1699 18.8852 40.9924 19.7141 41.9993 19.7141C43.0061 19.7141 43.8274 18.8852 43.8274 17.8585V13.9695Z" />
<path d="M53.8716 8.86497C53.8716 7.84418 53.0503 7.01405 52.0434 7.01405C51.0354 7.01405 50.2141 7.84418 50.2141 8.86497V17.8591C50.2141 18.8858 51.0354 19.7135 52.0434 19.7135C53.0503 19.7135 53.8716 18.8858 53.8716 17.8591V8.86497Z" />
<path d="M63.9163 1.88109C63.9163 0.860301 63.095 0.0313536 62.0881 0.0313536C61.0801 0.0313536 60.2588 0.860301 60.2588 1.88109V21.5544C60.2588 22.5811 61.0801 23.41 62.0881 23.41C63.095 23.41 63.9163 22.5811 63.9163 21.5544V1.88109Z" />
<path d="M73.9602 8.86497C73.9602 7.84418 73.1389 7.01405 72.132 7.01405C71.124 7.01405 70.3027 7.84418 70.3027 8.86497V17.8591C70.3027 18.8858 71.124 19.7135 72.132 19.7135C73.1389 19.7135 73.9602 18.8858 73.9602 17.8591V8.86497Z" />
<path d="M83.9935 13.9698C83.9935 12.949 83.178 12.1212 82.1758 12.1212C81.169 12.1212 80.3477 12.949 80.3477 13.9698V17.8587C80.3477 18.8854 81.169 19.7144 82.1758 19.7144C83.178 19.7144 83.9935 18.8854 83.9935 17.8587V13.9698Z" />
<path d="M81.893 42.756V42.9881H81.242V44.7064H80.9748V42.9881H80.3203V42.756H81.893Z" />
<path d="M82.0291 42.7559H82.448L83.0231 44.3558H83.0325L83.589 42.7559H83.9996V44.7063H83.7255V43.1076H83.7161L83.1328 44.7063H82.8796L82.3103 43.1076H82.2975V44.7063H82.0291V42.7559Z" />
</svg>
