<svg width="52" height="53" viewBox="0 0 52 53" fill="none" xmlns="http://www.w3.org/2000/svg">
<path d="M0 26.5C0 12.1406 11.6406 0.5 26 0.5C40.3594 0.5 52 12.1406 52 26.5C52 40.8594 40.3594 52.5 26 52.5C11.6406 52.5 0 40.8594 0 26.5Z" fill="white"/>
<g clip-path="url(#clip0_9628_527)">
<path d="M5 31.4844H10.0631V38.3426H5.42759L6.41037 35.5253L5 31.4844Z" fill="#00528B"/>
<path d="M10.0614 38.6255H5.32812L5.42591 38.3438H10.0614V38.6255Z" fill="#DBDADB"/>
<path d="M10.0631 39.5669H5L5.3298 38.625H10.0631V39.5669Z" fill="#CC2128"/>
<path d="M10.0619 33.2865V31.4844L7.96875 33.2931L10.0619 33.2865Z" fill="#0C4066"/>
<path d="M47.735 31.4883H42.6719V38.3449H47.3074L46.3246 35.5292L47.735 31.4883Z" fill="#00528B"/>
<path d="M42.6719 38.6271H47.4052L47.3074 38.3438H42.6719V38.6271Z" fill="#DBDADB"/>
<path d="M42.6719 39.5669H47.735L47.4052 38.625H42.6719V39.5669Z" fill="#CC2128"/>
<path d="M42.6719 33.2887V31.4883L44.6026 33.2954L42.6719 33.2887Z" fill="#0C4066"/>
<path fill-rule="evenodd" clip-rule="evenodd" d="M39.9957 32.2516C39.8963 31.7848 39.7786 31.3214 39.7057 30.8513C39.6849 30.5894 39.6849 30.3263 39.7057 30.0644L39.8184 30.0261L40.2907 30.4128C40.1847 29.7327 40.0852 29.1009 39.9858 28.4674L40.1283 28.4257C40.957 28.9942 41.3779 29.8677 41.9149 30.7512C41.9762 30.4178 42.0491 30.0744 42.0806 29.7327C42.0806 29.671 41.9646 29.5526 41.8851 29.5326C41.0663 29.3359 40.7051 28.7241 40.4913 27.9856C40.435 27.7402 40.3913 27.492 40.3603 27.2421C41.2039 27.5755 41.6663 28.224 42.2198 28.9642C42.2795 28.5291 42.3342 28.199 42.3607 27.8689C42.3607 27.8222 42.2397 27.7255 42.1685 27.7189C41.1144 27.6189 40.6769 26.8653 40.3305 25.9968C40.2824 25.8751 40.2509 25.7451 40.2145 25.6184C40.2145 25.6067 40.2145 25.5934 40.246 25.5267C41.1078 25.59 41.6912 26.1935 42.4287 26.7587C42.4287 26.4252 42.4403 26.1919 42.4187 25.9568C42.4187 25.9085 42.2762 25.8284 42.2082 25.8368C41.0929 25.9818 40.5692 25.2816 40.1714 24.4048C40.0852 24.2147 40.0388 24.0063 39.941 23.7079C40.9851 23.8196 41.6149 24.4698 42.2712 25.0716L42.3823 25.0333C42.3276 24.6665 42.2795 24.2981 42.2066 23.9347C42.2066 23.8997 42.0408 23.863 41.9596 23.8813C40.8443 24.143 39.8747 23.0478 39.6079 21.9775C40.5808 21.9425 41.2652 22.5443 42.0657 23.0561C42.0735 22.5928 41.9677 22.1348 41.7574 21.7225C41.7359 21.6758 41.5917 21.6541 41.5204 21.6708C40.4598 21.9209 39.8416 21.6808 39.1787 20.7256C39.069 20.5368 38.9758 20.3388 38.9002 20.1338C39.1289 20.1338 39.3775 20.0621 39.5797 20.1338C40.1051 20.3105 40.6106 20.5489 41.1227 20.7639C41.2039 20.7973 41.2884 20.8423 41.4326 20.919C41.3981 20.4925 41.2376 20.0861 40.9719 19.752C40.9321 19.6987 40.7266 19.732 40.6156 19.772C39.7869 20.0771 38.4047 19.5853 37.9738 18.7935C38.8207 18.6168 39.6311 18.7935 40.4498 18.9602C40.4747 18.9302 40.5012 18.9018 40.5277 18.8718C40.3874 18.6275 40.2324 18.3921 40.0637 18.1667C40.0239 18.1183 39.8217 18.155 39.7322 18.2083C38.7643 18.7368 37.4468 18.2934 36.7706 17.4098L37.0805 17.2431L35.4812 16.6863L35.4961 16.533C36.3563 16.0578 37.3192 16.0962 38.4097 16.0178L37.6821 15.2327C36.5949 16.3346 35.3884 16.1545 34.0625 15.6311C35.0006 14.9459 36.0513 14.9176 37.059 14.7792C37.0739 14.7392 37.0888 14.6992 37.1054 14.6575C36.8518 14.4641 36.6082 14.2608 36.3397 14.0824C36.3016 14.0557 36.174 14.1207 36.111 14.1791C35.2243 15.086 34.1902 15.0126 33.1079 14.6475C32.9952 14.6092 32.8875 14.5608 32.7765 14.5125C32.7549 14.5025 32.7433 14.4725 32.7102 14.4308C32.7682 14.3441 32.8328 14.2541 32.8941 14.1641L31.1788 13.9974C31.1788 13.949 31.1788 13.9007 31.1672 13.8523L31.5434 13.4973L29.3243 13.3305L29.2845 13.1638L30.2491 12.497C29.375 12.724 28.4506 12.6513 27.6222 12.2903C28.4293 11.5535 29.3856 11.4068 30.3054 11.17L29.974 10.8083L30.675 10.91C30.3634 10.4866 30.0867 10.1515 29.8563 9.78473C29.6259 9.41797 29.4022 9.02955 29.4602 8.49943C30.0683 8.63811 30.6254 8.94601 31.0678 9.38797C31.5302 9.87141 31.565 10.4549 31.3048 11.0984L32.4765 11.5435C32.1832 11.0433 31.918 10.6466 31.7158 10.2232C31.5136 9.79973 31.2617 9.37296 31.3843 8.85951C31.9883 8.9869 32.5181 9.34828 32.8593 9.86551C33.2004 10.3827 33.3255 11.0142 33.2074 11.6235C33.2031 11.6838 33.2128 11.7443 33.2358 11.8001C33.2588 11.856 33.2945 11.9057 33.34 11.9452C33.6101 12.1119 33.9034 12.2336 34.2913 12.4237C33.9598 11.4451 33.514 10.5899 33.6714 9.58968C34.6758 9.96143 35.3138 11.2401 35.0337 12.2386C34.868 12.8221 34.8895 12.8554 35.569 13.0955C35.511 12.6771 35.4249 12.2936 35.4033 11.9069C35.3818 11.5201 35.4431 11.1167 35.4696 10.6916C36.2121 11.0433 36.8369 12.272 36.6049 13.1605C36.5551 13.3472 36.411 13.6006 36.4822 13.7106C36.6248 13.9307 36.8849 14.0724 37.1866 14.3208C37.0987 13.3772 36.7524 12.5504 37.112 11.7102C38.0268 12.2686 38.5058 13.639 38.055 14.5192C37.8793 14.8526 37.9655 15.0193 38.2207 15.201C38.3119 15.2643 38.3948 15.3393 38.5522 15.461C38.5936 14.6175 38.3865 13.819 38.7776 13.0838C39.6063 13.7506 39.9526 15.0509 39.482 15.8945C39.2267 16.3496 39.2698 16.4829 39.8134 16.8647C39.8747 16.0495 39.8731 15.2393 40.3487 14.5458C40.9984 15.1276 41.2553 16.743 40.6222 17.3798C40.3454 17.6615 40.3653 17.8799 40.5907 18.165C40.6968 18.2967 40.7564 18.4617 40.8923 18.6134C41.0365 17.7799 41.0199 16.8947 41.5006 16.1129C41.8735 16.3896 41.9547 16.808 42.0541 17.1898C42.2696 18.01 42.1519 18.7568 41.4508 19.3353C41.4118 19.3842 41.3843 19.4415 41.3705 19.5027C41.3567 19.564 41.357 19.6276 41.3713 19.6887C41.4575 19.9565 41.5588 20.2192 41.6746 20.4755C41.9497 19.667 42.0607 18.9018 42.6971 18.2917C42.7933 18.5651 42.8761 18.7785 42.9441 18.9969C43.2755 20.0288 43.0435 20.7673 42.2198 21.4508C41.8685 21.7425 42.2364 21.9859 42.3276 22.2609C42.4634 21.909 42.6177 21.5645 42.79 21.229C42.9937 20.9117 43.215 20.6062 43.4529 20.3138C43.9169 21.3574 43.8225 22.8394 42.8877 23.2995C42.4353 23.5229 42.5563 23.7996 42.6292 24.2431C43.1065 23.6396 43.3435 22.9311 44.1208 22.5443C44.1208 23.0678 44.1721 23.5262 44.1092 23.9697C44.0064 24.6848 43.6484 25.245 42.9192 25.49C42.843 25.515 42.7319 25.595 42.7286 25.6567C42.7082 25.9844 42.7198 26.3133 42.7634 26.6386C43.1396 25.9568 43.4877 25.2783 44.1821 24.8582C44.5136 25.8918 44.197 27.5738 42.9375 27.8139C42.5828 27.8822 42.4966 28.2057 42.606 28.8791C43.1264 28.2523 43.6153 27.6422 44.3893 27.3788C44.4738 28.464 43.7545 29.546 42.954 29.731C42.3259 29.8694 42.2281 30.0511 42.243 30.8129C42.5745 30.5662 42.8778 30.3128 43.2092 30.1161C43.5407 29.9194 43.902 29.7827 44.2981 29.5993C44.2716 30.5679 43.4048 31.6264 42.5546 31.6865C41.8917 31.7331 41.7757 31.8815 41.7425 32.6684C42.4701 32.2416 43.0982 31.6548 43.9766 31.6264C43.9003 32.6367 42.7585 33.6269 41.7989 33.4919C41.4409 33.4435 41.3232 33.5569 41.237 33.862C41.1658 34.112 41.0415 34.3471 40.9719 34.6238C41.7558 34.197 42.5281 33.7903 43.4479 33.7719C43.1496 34.8439 41.8602 35.7407 40.9255 35.3573C40.7067 35.2656 40.5758 35.3456 40.4813 35.5507C40.3537 35.8258 40.2112 36.0958 40.0173 36.4842C40.8874 36.0858 41.6083 35.574 42.5032 35.6374C42.306 36.6826 40.9089 37.5345 39.9377 37.1927C39.656 37.0927 39.5267 37.1477 39.3842 37.3678C39.2715 37.5345 39.1273 37.7012 39.0163 37.9029C39.8101 37.7362 40.5692 37.3294 41.4707 37.5495C41.0282 38.288 40.4051 38.6614 39.6245 38.9481L40.2045 39.0598C39.598 39.7267 38.9798 40.2268 38.0766 40.2268L38.582 40.4718C37.9191 41.242 36.5734 41.7288 35.6436 41.0153C35.5677 40.9751 35.4843 40.9512 35.3987 40.9451C35.3131 40.9391 35.2272 40.9511 35.1464 40.9803C34.9172 41.0652 34.7114 41.2041 34.5465 41.3854C34.9484 41.3946 35.3495 41.4258 35.748 41.4787C36.156 41.574 36.5583 41.6925 36.9529 41.8338C36.1242 42.599 34.6492 42.8024 33.9084 41.9472C33.8791 41.8996 33.8405 41.8584 33.7951 41.826C33.7497 41.7936 33.6983 41.7707 33.6439 41.7586C33.5896 41.7465 33.5334 41.7454 33.4786 41.7555C33.4239 41.7655 33.3716 41.7865 33.325 41.8171C33.0582 41.9505 32.7748 42.0489 32.3936 42.2039C33.2223 42.5806 34.0509 42.779 34.6376 43.4875C34.1404 43.7376 33.6532 43.7042 33.1825 43.6459C32.888 43.622 32.6048 43.521 32.3611 43.3528C32.1174 43.1846 31.9218 42.9552 31.7937 42.6873C31.6694 42.4256 31.5169 42.3756 31.2567 42.474C31.0496 42.5523 30.8242 42.5806 30.5938 42.684C31.2667 43.0691 32.0456 43.2625 32.5511 43.8976C31.739 44.4244 30.2623 44.0793 29.7751 43.2175C29.6011 42.9107 29.4304 42.8507 29.1122 42.9291C28.6481 43.0408 28.1691 43.0958 27.6968 43.1741C27.599 43.1908 27.5046 43.2191 27.3024 43.2675C28.1824 43.6626 29.1602 43.6109 29.7602 44.3294C29.7403 44.3844 29.7187 44.4394 29.6972 44.4961C29.2779 44.3594 28.8602 44.2227 28.4426 44.0827C28.025 43.9426 27.6388 43.8026 27.2344 43.6726C26.1539 43.3242 25.1644 43.7009 24.1734 44.0677C23.7557 44.221 23.3315 44.3511 22.874 44.5044C22.9436 44.0777 23.1326 43.9376 23.9016 43.7009C24.3176 43.5725 24.7402 43.4608 25.1595 43.3425C25.1595 43.3058 25.1595 43.2691 25.1595 43.2325L24.6987 43.1508C24.2397 43.0708 23.7822 42.9724 23.3199 42.9207C23.1823 42.9057 22.9453 42.9741 22.9006 43.0724C22.4862 43.9776 21.4537 44.2394 20.5024 44.0843C20.3466 44.0593 20.1925 44.0193 19.9853 43.9743C20.4975 43.2541 21.293 43.0674 21.9907 42.6407C21.6908 42.5543 21.3865 42.4842 21.0792 42.4306C21.0013 42.4206 20.8654 42.5723 20.8157 42.679C20.3334 43.7209 18.7606 43.8909 17.8922 43.4242C18.28 43.1674 18.6131 42.9124 18.9777 42.719C19.3423 42.5256 19.7169 42.4039 20.2041 42.2039C19.7334 42.0155 19.3887 41.8538 19.0274 41.7471C18.9396 41.7221 18.7755 41.8588 18.6844 41.9572C17.8888 42.8107 16.4089 42.564 15.6332 41.8288C16.0253 41.688 16.4248 41.5689 16.8298 41.4721C17.216 41.402 17.6187 41.412 18.0612 41.3054C17.8495 41.2017 17.6442 41.0854 17.4463 40.9569C17.1712 40.7552 17.0154 40.9719 16.8182 41.0903C16.0989 41.5237 15.3863 41.402 14.6935 41.0253C14.4304 40.8662 14.176 40.6932 13.9312 40.5068L14.5394 40.2234C13.6445 40.2234 13.0081 39.745 12.4031 39.0865L12.8606 38.9198C12.1413 38.6181 11.5181 38.2663 11.1138 37.5295C12.017 37.3444 12.7711 37.7079 13.5898 37.8629C13.4124 37.6378 13.2467 37.3994 13.0478 37.1961C12.9931 37.1394 12.8291 37.1461 12.7329 37.1777C11.6574 37.5345 10.5304 36.8727 10.0812 35.6457C11.0044 35.579 11.7203 36.0791 12.5357 36.3875C12.3814 36.0572 12.2093 35.7355 12.0203 35.424C11.9706 35.3506 11.7336 35.3556 11.6027 35.394C10.6182 35.6757 9.42993 34.7922 9.17139 33.7836C10.0862 33.7836 10.8386 34.227 11.6988 34.6988C11.5215 34.2637 11.3988 33.9303 11.2463 33.6119C11.2166 33.5682 11.1764 33.5326 11.1295 33.5085C11.0827 33.4843 11.0305 33.4723 10.9779 33.4735C10.1757 33.6786 9.30066 33.1568 8.82335 32.2799C8.72557 32.0949 8.64768 31.8982 8.52172 31.6264C9.48462 31.6598 10.131 32.2283 10.842 32.685C10.8685 31.9415 10.7027 31.7598 10.0498 31.6848C9.11835 31.5714 8.68414 30.8913 8.34605 30.1161C8.3043 30.0074 8.26997 29.896 8.24329 29.7827C8.63773 29.6477 8.63773 29.6477 10.3298 30.8079C10.4459 30.3078 10.2138 29.8827 9.75807 29.7677C8.79352 29.5243 8.08253 28.4657 8.21015 27.4071C9.01394 27.6372 9.44319 28.3257 10.0083 28.8841C10.0912 28.1173 10.0083 27.9823 9.39512 27.7455C9.17741 27.6595 8.98129 27.5262 8.82084 27.355C8.66039 27.1838 8.53956 26.979 8.46703 26.7553C8.23832 26.1452 8.31124 25.53 8.34605 24.8432C9.1283 25.2716 9.42827 25.9985 9.889 26.6403C9.889 26.3169 9.90226 25.9935 9.87906 25.6734C9.87906 25.6101 9.73156 25.54 9.64206 25.5067C9.3248 25.3956 9.04711 25.193 8.84372 24.9241C8.64033 24.6551 8.52026 24.3319 8.49852 23.9947C8.47147 23.5134 8.4687 23.031 8.49023 22.5493C9.20619 22.9528 9.49622 23.5779 9.85088 24.153C10.1691 23.788 10.1409 23.5896 9.77299 23.3795C9.09349 22.9911 8.86644 22.346 8.8565 21.6191C8.8565 21.2274 8.95759 20.8323 9.02223 20.3622C9.76968 20.844 9.96855 21.6075 10.2851 22.316C10.5983 21.7625 10.5818 21.6491 10.1625 21.3157C9.9844 21.1741 9.83815 20.9961 9.73332 20.7936C9.62849 20.591 9.56746 20.3684 9.55422 20.1405C9.50858 19.5222 9.62637 18.9027 9.89563 18.345C10.5586 18.8818 10.6083 19.6787 10.9381 20.4455C11.0487 20.2269 11.138 19.998 11.2049 19.762C11.2194 19.6862 11.2176 19.6081 11.1996 19.5331C11.1816 19.458 11.1478 19.3877 11.1005 19.3269C10.184 18.5768 10.2818 17.1364 11.0756 16.1445C11.6192 16.9064 11.5281 17.7966 11.7386 18.6801C11.906 18.4083 12.056 18.126 12.1877 17.8349C12.2208 17.7499 12.0965 17.5732 12.007 17.4715C11.3441 16.728 11.5911 15.246 12.2474 14.5525C12.7346 15.2627 12.7247 16.0828 12.7943 16.898C13.3329 16.5013 13.3909 16.3346 13.1009 15.8528C12.6816 15.1426 12.9451 13.794 13.8152 13.0755C14.1698 13.829 14.0936 14.6042 14.0041 15.3844C14.551 15.231 14.7018 14.9242 14.5013 14.4591C14.3918 14.2282 14.3367 13.975 14.3401 13.7191C14.3436 13.4633 14.4055 13.2117 14.5212 12.9838C14.7721 12.5216 15.0686 12.086 15.4062 11.6835C15.8271 12.5537 15.5255 13.3772 15.378 14.3174C15.6284 14.1439 15.868 13.9552 16.0956 13.7523C16.1536 13.694 16.1321 13.5039 16.0857 13.4022C15.668 12.4887 16.2663 11.1767 17.0602 10.6983C17.3171 11.4985 17.158 12.2803 16.9939 13.1638L17.7563 12.7437C17.1513 11.4868 17.6204 10.3415 18.8948 9.57634C19.0987 10.5766 18.6496 11.4318 18.3065 12.422C18.7125 12.222 19.0208 12.0886 19.3158 11.9219C19.348 11.8919 19.3727 11.8546 19.388 11.8132C19.4032 11.7718 19.4086 11.7274 19.4036 11.6835C19.0904 10.2365 19.8826 9.45298 21.0411 8.88118C21.0875 8.85784 21.1322 8.83117 21.2714 8.75282C21.2565 9.84141 20.6914 10.6216 20.1113 11.5335L21.3012 11.12C21.0609 10.5416 21.051 9.98644 21.457 9.49633C21.8631 9.00621 22.4431 8.70448 23.1657 8.49609C23.1293 9.51633 22.4862 10.1481 21.9575 10.83C21.9824 10.8733 22.0089 10.9167 22.0354 10.9583C22.3669 10.8216 22.7216 10.7083 23.0464 10.5432C23.7093 10.2098 24.3441 9.82473 25.0087 9.49633C25.2092 9.3963 25.4661 9.40797 25.713 9.3663C25.5473 10.4866 24.1982 11.2901 23.111 11.0083C22.8467 10.9632 22.5754 10.9832 22.3205 11.0667C23.2121 11.4134 24.1916 11.5251 24.9722 12.2653C24.1435 12.6504 23.3414 12.6921 22.3934 12.487L23.3315 13.1538C23.3215 13.2055 23.3132 13.2555 23.3033 13.3072L21.0626 13.4889L21.4255 13.8223C21.1803 14.0574 21.1803 14.0574 19.7036 14.1307L19.9058 14.4108C18.9777 15.0259 17.3999 15.1276 16.6061 14.2641C16.3807 14.019 16.2232 14.049 16.0144 14.2424C15.8487 14.3908 15.683 14.5275 15.4261 14.7425C16.5398 14.9092 17.5806 14.9309 18.454 15.5544C17.6469 16.2779 16.0724 16.1429 14.9206 15.2377L14.1897 15.8461L14.3091 16.0128C15.2637 16.0728 16.2365 16.0512 17.1116 16.4996C17.1215 16.548 17.1298 16.598 17.1397 16.648L15.5752 17.2248L15.8371 17.4132C15.1344 18.2817 13.8367 18.7151 12.9832 18.2283C12.6517 18.0416 12.486 18.0933 12.3418 18.4184C12.2706 18.5851 12.1761 18.7335 12.0568 18.9568C12.554 18.8735 12.9716 18.7785 13.3826 18.7418C13.7925 18.714 14.2042 18.7303 14.6107 18.7901C14.314 19.2753 13.8682 19.5236 13.3926 19.7104C12.9162 19.9046 12.3855 19.9165 11.901 19.7437C11.8271 19.7363 11.7526 19.7476 11.6842 19.7768C11.6159 19.8059 11.5559 19.8518 11.5099 19.9104C11.3643 20.1854 11.2375 20.47 11.1303 20.7623C11.1635 20.7923 11.1966 20.8223 11.2314 20.8506C11.4041 20.751 11.5829 20.6624 11.7667 20.5856C12.3192 20.3933 12.8716 20.2138 13.424 20.0471C13.4736 20.0415 13.5238 20.0466 13.5713 20.0622C13.6187 20.0777 13.6623 20.1032 13.6992 20.1371C13.7273 20.1605 13.6793 20.3038 13.6345 20.3805C13.318 20.8973 12.9716 21.4274 12.3783 21.6175C11.989 21.7242 11.5813 21.7446 11.1834 21.6775C10.9281 21.6408 10.7989 21.6575 10.7359 21.8959C10.6383 22.2451 10.5701 22.602 10.532 22.9628C11.3259 22.556 12.0037 21.9292 12.9567 21.9625C12.834 23.0611 11.7634 23.978 10.7342 23.8613C10.416 23.8263 10.3332 23.928 10.3149 24.2064C10.2967 24.4848 10.252 24.7449 10.2055 25.1333C10.9812 24.4665 11.6093 23.7996 12.5772 23.6863C12.4446 24.8432 11.596 26.0001 10.4773 25.8334C10.242 25.7984 10.1194 25.8618 10.1459 26.1252C10.1591 26.2919 10.1459 26.4586 10.1459 26.722C10.8834 26.2219 11.4618 25.6 12.3269 25.5034C12.2888 26.5769 11.4983 27.5288 10.5138 27.6805C10.2934 27.7155 10.2006 27.7889 10.2321 28.0139C10.2628 28.2896 10.3182 28.5619 10.3978 28.8275C10.9331 28.2223 11.3922 27.5955 12.1529 27.2454C12.2164 27.7342 12.1071 28.2298 11.8441 28.6458C11.5812 29.0617 11.1813 29.3715 10.7143 29.521C10.6298 29.551 10.5039 29.6627 10.5105 29.7227C10.5528 30.0567 10.6323 30.385 10.7475 30.7012C11.2281 29.856 11.6557 29.0175 12.5059 28.379C12.604 29.1049 12.505 29.844 12.2192 30.5179L12.791 29.9844C12.9898 30.7746 12.8307 31.4631 12.6252 32.1516C12.259 32.4633 11.891 32.7734 11.5264 33.0885C11.48 33.1285 11.417 33.2085 11.4303 33.2552C11.5529 33.6252 11.6905 33.9903 11.8247 34.3571C12.0773 33.7925 12.2986 33.2142 12.4877 32.625C12.5407 32.47 12.5755 32.3083 12.6186 32.1482L13.1821 31.6481C13.618 32.715 13.4124 34.182 12.3385 34.8155C12.2457 34.8705 12.1446 35.0706 12.1728 35.1489C12.3269 35.5123 12.5274 35.8574 12.7727 36.3159C13.1489 35.274 13.2931 34.2471 14.1599 33.5152C14.193 33.7253 14.2345 33.9336 14.2577 34.1437C14.372 35.1439 14.1914 36.0391 13.2633 36.6309C13.1987 36.6726 13.129 36.8377 13.1572 36.8793C13.3822 37.2109 13.6375 37.5206 13.9196 37.8045C14.0853 36.751 14.1698 35.7074 14.7764 34.7838C15.4493 35.6557 15.3399 37.2261 14.5659 37.9329C14.3024 38.173 14.3074 38.3147 14.5659 38.5247C14.8245 38.7348 15.0134 38.9331 15.2753 39.1749C15.3034 38.5747 15.3233 38.0379 15.3565 37.5078C15.3872 36.9509 15.5461 36.4088 15.8205 35.9241C16.1917 36.4547 16.3882 37.0891 16.3823 37.7379C16.392 38.0621 16.3243 38.384 16.1851 38.6766C16.0458 38.9692 15.839 39.2241 15.5819 39.4199L16.6425 40.2184C16.5806 39.6827 16.5463 39.1441 16.5398 38.6047C16.5877 38.1008 16.6635 37.5999 16.7668 37.1044C17.6717 37.9479 17.7894 39.0615 17.1828 40.5485L18.3115 41.2003C18.1872 40.6035 18.0562 40.1418 18.0049 39.6716C17.9783 39.2181 17.975 38.7635 17.9949 38.3097L18.1838 38.2446C18.4514 38.6089 18.7004 38.9867 18.9296 39.3766C19.0831 39.6367 19.1748 39.9289 19.1975 40.2305C19.2202 40.5321 19.1733 40.8349 19.0606 41.1153C18.9578 41.362 18.9628 41.5371 19.286 41.6154C19.6091 41.6938 19.9489 41.8388 20.3002 41.9022C19.803 41.0353 19.286 40.2168 19.1865 39.2032C20.2008 39.3566 21.1504 40.6835 20.998 41.7321C20.9482 42.0889 21.0212 42.2239 21.3758 42.2506C21.6559 42.2919 21.9328 42.3526 22.2045 42.4323C21.9194 41.9322 21.6592 41.5271 21.467 41.0986C21.2806 40.6616 21.1465 40.2038 21.0676 39.735C21.8167 40.0134 22.3934 40.4618 22.705 41.167C22.8243 41.5182 22.8804 41.8879 22.8707 42.2589C22.8807 42.4656 22.9022 42.5923 23.1276 42.6223C24.1651 42.789 25.1976 43.0391 26.2417 43.1074C26.9162 43.1508 27.609 42.9407 28.2918 42.8257C28.6995 42.7607 29.1072 42.6923 29.5083 42.5956C29.6011 42.574 29.7436 42.4289 29.7337 42.3506C29.5679 41.1353 30.2557 40.4235 31.1656 39.8367C31.2534 39.7817 31.3479 39.7367 31.5318 39.6383C31.497 40.7269 30.9236 41.5104 30.3568 42.4339C30.8092 42.3339 31.1523 42.2672 31.4838 42.1756C31.5467 42.1572 31.6147 41.9755 31.5965 41.8855C31.3247 40.6035 32.4384 39.5283 33.4029 39.1482C33.3333 40.2151 32.7715 41.0336 32.2428 41.8671L32.3108 41.9705C32.7118 41.8221 33.1162 41.6838 33.5073 41.5137C33.5604 41.4904 33.5886 41.287 33.5521 41.2003C33.1112 40.1534 33.7178 38.8781 34.5233 38.2396C34.7669 39.2265 34.5233 40.1484 34.2531 41.202C34.6741 40.9636 34.9989 40.7986 35.2972 40.5935C35.3453 40.5585 35.3155 40.3318 35.2575 40.2301C34.6791 39.2299 35.0254 38.0413 35.6784 37.2027C35.69 37.1877 35.7265 37.1911 35.7878 37.1794C36.1607 38.1229 36.0099 39.1098 35.9535 40.2134L36.9894 39.4383C35.8491 38.3497 36.0928 37.1877 36.7026 35.9374C37.1302 36.3975 37.165 36.956 37.2297 37.4728C37.2943 37.9896 37.2446 38.5597 37.2446 39.1048L37.3606 39.1582C37.6407 38.8898 37.9291 38.6281 38.1893 38.3413C38.2274 38.2997 38.1893 38.1046 38.118 38.0529C37.1435 37.2628 37.2694 35.9324 37.649 34.9422C37.6655 34.9005 37.7235 34.8755 37.8064 34.8038C38.3914 35.7391 38.5439 36.7543 38.655 37.8679L39.5267 36.801C38.2207 35.9841 38.0898 34.8305 38.4577 33.4235C39.2466 34.2454 39.477 35.2356 39.8267 36.2575C40.0355 35.8574 40.2493 35.459 40.4465 35.0522C40.4647 35.0122 40.3951 34.9055 40.3404 34.8605C39.1803 33.8936 38.9218 33.0384 39.3908 31.6148L39.9924 32.2466C40.1283 32.645 40.2708 33.0401 40.3951 33.4402C40.4946 33.7569 40.5692 34.0787 40.6553 34.3988C40.8555 34.1011 41.0082 33.7737 41.1078 33.4285C41.1223 33.3749 41.1245 33.3187 41.1142 33.264C41.1038 33.2094 41.0812 33.1579 41.0481 33.1135C40.7167 32.8101 40.3537 32.535 39.9957 32.2516ZM13.6213 16.6797L12.9401 17.5399L13.0047 17.6215L14.8278 17.2364L13.6213 16.6797ZM22.1349 12.427C21.8797 12.1469 21.6377 11.8752 21.3858 11.6118C21.3261 11.5485 21.22 11.4584 21.1653 11.4751C20.814 11.5718 20.4693 11.6968 20.1229 11.8085L20.1676 11.8952L22.1349 12.427ZM38.9781 16.668L37.7683 17.2415L39.6079 17.6199L39.6527 17.5399L38.9781 16.668ZM30.4811 12.4137L32.4699 11.8969C32.1739 11.7194 31.8541 11.5857 31.5202 11.5001C31.4648 11.4987 31.4097 11.5091 31.3586 11.5307C31.3075 11.5522 31.2614 11.5844 31.2236 11.6252C30.9683 11.8669 30.738 12.1353 30.4811 12.4137ZM18.749 13.8473C18.5037 13.5539 18.2899 13.2872 18.0612 13.0371C18.0283 13.0121 17.9897 12.9957 17.9489 12.9893C17.9082 12.9829 17.8665 12.9867 17.8275 13.0005C17.5607 13.1572 17.3055 13.3339 17.0453 13.5006C17.0453 13.5406 17.0569 13.5789 17.0618 13.6173L18.749 13.8473ZM34.6691 12.9205L33.8405 13.8473C34.1719 13.804 34.4603 13.7706 34.7437 13.7306C35.0271 13.6906 35.284 13.6473 35.5541 13.6056C35.5541 13.5656 35.5541 13.5273 35.5541 13.4872L34.6691 12.9205ZM41.3431 32.4566L41.4376 32.4716C41.5122 32.1949 41.6033 31.9198 41.6514 31.6381C41.6525 31.589 41.6421 31.5404 41.6211 31.4961C41.6001 31.4518 41.569 31.4131 41.5304 31.3831C41.1989 31.158 40.8675 30.953 40.536 30.7512L41.3431 32.4566ZM12.0087 30.8279C11.6557 31.0313 11.369 31.1913 11.0906 31.3614C11.0176 31.4064 10.9066 31.5014 10.9248 31.5481C10.9961 31.8548 11.0906 32.1549 11.2182 32.5567L12.0087 30.8279ZM20.1295 13.0588C19.866 12.7471 19.6489 12.482 19.4185 12.2253C19.3905 12.2002 19.357 12.1823 19.3206 12.173C19.2843 12.1637 19.2462 12.1633 19.2097 12.1719C18.991 12.2803 18.7838 12.412 18.4788 12.5887L20.1295 13.0588ZM34.0062 12.6287L34.0261 12.527C33.8322 12.422 33.6416 12.307 33.4411 12.2153C33.3681 12.1819 33.2289 12.1669 33.1891 12.2153C32.9571 12.4687 32.7466 12.7421 32.4964 13.0488L34.0062 12.6287ZM13.4555 38.9348L14.8344 39.1732C14.4151 38.5064 14.2129 38.4664 13.4555 38.9348ZM37.7468 39.1832L39.2019 38.9265C38.2506 38.4814 38.2489 38.483 37.7418 39.1832H37.7468ZM36.3911 40.2985L37.6374 40.2118C37.1849 39.6733 37.001 39.6733 36.3861 40.2985H36.3911ZM14.9471 40.2118L16.2995 40.2968C15.6266 39.6733 15.5073 39.66 14.9471 40.2118Z" fill="url(#paint0_linear_9628_527)"/>
<path d="M44.5986 33.293H7.96875V40.4696H44.5986V33.293Z" fill="#005FA3"/>
<path d="M13.3638 40.3532C12.0678 40.3532 11.1016 39.8647 11.1016 38.6394V35.0586H12.2385V38.5411C12.2385 39.0895 12.6462 39.4129 13.3986 39.4129C14.0499 39.4129 14.5107 39.0895 14.5107 38.5477V35.0586H15.6492V38.7044C15.6409 39.8114 14.693 40.3532 13.3638 40.3532Z" fill="white"/>
<path d="M15.3594 40.2879V39.2227H16.3736V40.2879H15.3594Z" fill="white"/>
<path d="M18.8432 40.3584C17.2704 40.3584 16.7036 39.8817 16.4948 39.2198C16.4488 39.0451 16.4243 38.8654 16.4219 38.6847H17.5986C17.6029 38.7993 17.6276 38.9122 17.6715 39.0181C17.8173 39.3215 18.1587 39.4532 18.8498 39.4532C19.6404 39.4532 19.9155 39.2365 19.9155 38.8914C19.9155 38.4613 19.6984 38.308 18.8565 38.1496C18.7056 38.1229 18.3228 38.0496 18.0941 38.0046C17.0798 37.8128 16.455 37.3377 16.455 36.4759C16.455 35.614 17.1644 34.9922 18.6924 34.9922C19.995 34.9922 20.6066 35.449 20.8701 36.1108C20.9363 36.27 20.9766 36.4388 20.9894 36.6109H19.8094C19.8019 36.5211 19.7777 36.4334 19.7382 36.3525C19.6006 36.0608 19.3172 35.9091 18.6592 35.9091C17.7974 35.9091 17.6267 36.1008 17.6267 36.3992C17.6267 36.7826 17.935 36.9343 18.7869 37.1077C19.0487 37.1594 19.3901 37.2327 19.5094 37.2527C20.5436 37.4511 21.0822 37.8812 21.0822 38.7764C21.0789 39.7233 20.3364 40.3584 18.8432 40.3584Z" fill="white"/>
<path d="M20.8203 40.2879V39.2227H21.8346V40.2879H20.8203Z" fill="white"/>
<path d="M25.3584 40.2881L23.2669 36.7457V40.2881H22.1797V35.0586H23.5055L25.5059 38.4277V35.0586H26.5914V40.2881H25.3584Z" fill="white"/>
<path d="M30.526 40.0052C30.0954 40.2572 29.6018 40.3793 29.1041 40.3569C28.2522 40.3569 27.5628 40.1035 27.1932 39.5134C26.9869 39.1605 26.8851 38.7556 26.8998 38.3465C26.8905 37.94 27.0063 37.5406 27.2313 37.2029C27.6009 36.6627 28.2638 36.3477 29.1007 36.3477C29.9791 36.3477 30.5791 36.6694 30.9238 37.1678C31.2133 37.6313 31.3306 38.1828 31.2553 38.7249H28.0069C28.0146 38.8987 28.0896 39.0626 28.2157 39.1816C28.3815 39.3484 28.6897 39.4684 29.109 39.4684C29.3498 39.4752 29.5895 39.4327 29.8134 39.3433C29.885 39.3187 29.9504 39.2789 30.0053 39.2265C30.0603 39.1742 30.1033 39.1105 30.1316 39.0399H31.2271C31.129 39.4421 30.8771 39.789 30.526 40.0052ZM29.9543 37.5429C29.8403 37.4397 29.707 37.3603 29.5621 37.3097C29.4172 37.259 29.2638 37.238 29.1107 37.2479C28.7943 37.2284 28.4818 37.3263 28.2323 37.5229C28.1041 37.6458 28.0207 37.8084 27.9953 37.9847H30.1498C30.1438 37.8161 30.0759 37.6557 29.9592 37.5346L29.9543 37.5429Z" fill="white"/>
<path d="M36.7106 40.2872H35.3848C35.3848 40.2872 34.6323 38.0701 34.6191 37.9434C34.6191 37.895 34.5677 37.6666 34.5677 37.6666C34.5677 37.6666 34.5279 37.895 34.5213 37.9367C34.5213 38.0701 33.7606 40.2872 33.7606 40.2872H32.4348L31.0625 36.4297H32.2226L33.1441 39.297L33.986 36.4297H35.2273L36.0924 39.297L36.9907 36.4297H38.0862L36.7106 40.2872Z" fill="white"/>
<path d="M40.1506 40.3563C38.8546 40.3563 38.2414 40.0962 38.079 39.4644C38.0507 39.3381 38.0374 39.2088 38.0392 39.0793H39.1463C39.1466 39.1463 39.1578 39.2127 39.1795 39.276C39.2507 39.4578 39.5424 39.5061 40.149 39.5061C40.7837 39.5061 40.9776 39.3944 40.9776 39.1727C40.9776 38.951 40.7473 38.906 40.1821 38.8209C40.0363 38.8009 39.5756 38.7309 39.3535 38.6942C38.5099 38.5759 38.1039 38.2041 38.1039 37.4673C38.1039 36.7805 38.7171 36.332 39.9518 36.332C41.0042 36.332 41.6671 36.6054 41.8627 37.1656C41.9052 37.3165 41.9286 37.4722 41.9323 37.629H40.8517C40.851 37.5563 40.8346 37.4846 40.8036 37.4189C40.7257 37.3139 40.5235 37.2222 39.9949 37.2222C39.38 37.2222 39.1994 37.3206 39.1994 37.5023C39.1994 37.684 39.317 37.734 39.8623 37.819C40.0844 37.8524 40.6213 37.9291 40.7539 37.9507C41.6737 38.0908 42.0798 38.4359 42.0798 39.1577C42.0748 39.9479 41.4765 40.3563 40.1506 40.3563Z" fill="white"/>
<path d="M27.8369 35.7662C27.8724 35.7178 27.8921 35.6596 27.8933 35.5995H28.1866C28.1855 35.725 28.1348 35.8449 28.0458 35.9329C28.1137 35.9846 28.1933 36.0446 28.2695 36.0996H27.8717L27.8237 36.0596C27.732 36.094 27.6348 36.111 27.537 36.1096C27.2884 36.1096 27.0646 36.0646 27.0547 35.8712V35.8162C27.0547 35.6978 27.1707 35.6228 27.295 35.5645C27.2446 35.5011 27.2145 35.4238 27.2088 35.3428V35.2894C27.2088 35.1594 27.3397 35.0377 27.5585 35.0377C27.6331 35.0277 27.7087 35.0476 27.7688 35.0931C27.829 35.1387 27.8689 35.2062 27.88 35.2811C27.8809 35.2961 27.8809 35.3111 27.88 35.3261C27.8723 35.3884 27.8491 35.4478 27.8126 35.4988C27.7761 35.5497 27.7275 35.5907 27.6712 35.6178L27.8369 35.7662ZM27.3646 35.8329C27.3646 35.8829 27.411 35.9029 27.5204 35.9029C27.5511 35.903 27.5816 35.8997 27.6115 35.8929C27.5519 35.8412 27.4889 35.7912 27.4458 35.7479C27.3977 35.7745 27.3646 35.8029 27.3646 35.8395V35.8329ZM27.6198 35.3561V35.3394C27.6206 35.3305 27.6194 35.3216 27.6164 35.3132C27.6133 35.3049 27.6084 35.2973 27.6021 35.2911C27.5957 35.2848 27.5881 35.2801 27.5797 35.2772C27.5713 35.2743 27.5623 35.2734 27.5535 35.2744C27.5444 35.274 27.5353 35.2754 27.5268 35.2786C27.5182 35.2819 27.5104 35.2869 27.5039 35.2933C27.4974 35.2997 27.4922 35.3074 27.4888 35.3159C27.4853 35.3244 27.4837 35.3336 27.4839 35.3428C27.4823 35.3521 27.4823 35.3617 27.4839 35.3711C27.487 35.407 27.5015 35.4409 27.5254 35.4678C27.5784 35.4311 27.6165 35.3961 27.6198 35.3561Z" fill="white"/>
<path d="M29.8431 36.1049H29.4934C29.4934 36.1049 29.3377 35.4998 29.3277 35.4648C29.3277 35.5015 29.162 36.1049 29.162 36.1049H28.8156L28.5156 35.0547H28.867C28.867 35.0547 29.0327 35.7032 29.0327 35.7365C29.0327 35.7032 29.1868 35.0547 29.1868 35.0547H29.5183C29.5183 35.0547 29.684 35.7032 29.684 35.7365C29.684 35.7032 29.8415 35.0547 29.8415 35.0547H30.1514L29.8431 36.1049Z" fill="white"/>
<path d="M31.2622 35.5703C31.2622 35.9404 31.0964 36.1221 30.7053 36.1221C30.3142 36.1221 30.1484 35.9337 30.1484 35.5753C30.1484 35.2169 30.3142 35.0352 30.7053 35.0352C31.0964 35.0352 31.2622 35.2202 31.2622 35.5703ZM30.939 35.5703C30.939 35.3636 30.8826 35.2769 30.7053 35.2769C30.528 35.2769 30.4749 35.3602 30.4749 35.5703C30.4749 35.7803 30.5545 35.8687 30.707 35.8687C30.8594 35.8687 30.939 35.812 30.939 35.5769V35.5703Z" fill="white"/>
<path d="M32.3564 35.5851C32.343 35.6099 32.3246 35.6317 32.3023 35.6489C32.28 35.6661 32.2544 35.6784 32.2271 35.6851L32.4724 36.1068H32.1127L31.9288 35.7501H31.7133V36.1068H31.3984V35.0566H32.0614C32.1135 35.051 32.1662 35.0578 32.2152 35.0767C32.2642 35.0955 32.308 35.1258 32.3431 35.165C32.3875 35.2306 32.409 35.3091 32.4044 35.3883C32.4058 35.457 32.3892 35.5248 32.3564 35.5851ZM32.0779 35.34C32.063 35.3067 32.0315 35.2967 31.9851 35.2967H31.7166V35.5117H31.9918C32.0315 35.5117 32.0663 35.5017 32.0779 35.475C32.0851 35.4535 32.0891 35.431 32.0895 35.4083C32.0914 35.3849 32.0874 35.3614 32.0779 35.34Z" fill="white"/>
<path d="M32.625 36.1049V35.0547H32.9565V35.8382H33.4537V36.0983L32.625 36.1049Z" fill="white"/>
<path d="M34.1977 36.1053H33.6094V35.055H34.1828C34.2508 35.0452 34.3203 35.0525 34.3848 35.0764C34.4493 35.1003 34.5069 35.1399 34.5524 35.1917C34.62 35.3011 34.6475 35.4308 34.6303 35.5585C34.649 35.6943 34.6228 35.8325 34.5557 35.9519C34.5149 36.007 34.4602 36.0503 34.3973 36.0772C34.3344 36.1042 34.2655 36.1139 34.1977 36.1053ZM34.3187 35.5585C34.3247 35.4895 34.3133 35.4201 34.2856 35.3568C34.266 35.335 34.2414 35.3185 34.2139 35.3086C34.1864 35.2987 34.157 35.2958 34.1281 35.3001H33.9276V35.8569H34.1281C34.1585 35.8616 34.1896 35.8586 34.2186 35.8481C34.2475 35.8376 34.2734 35.82 34.2938 35.7969C34.3196 35.7202 34.328 35.6388 34.3187 35.5585Z" fill="white"/>
<path d="M36.122 35.5851C36.1089 35.6098 36.0907 35.6315 36.0688 35.6487C36.0468 35.6659 36.0214 35.6783 35.9944 35.6851L36.238 36.1068H35.88L35.6961 35.7501H35.4806V36.1068H35.1641V35.0566H35.827C35.8791 35.051 35.9318 35.0578 35.9808 35.0767C36.0298 35.0955 36.0736 35.1258 36.1087 35.165C36.1538 35.2303 36.1754 35.309 36.1701 35.3883C36.1722 35.4571 36.1556 35.5251 36.122 35.5851ZM35.8452 35.34C35.8286 35.3067 35.7988 35.2967 35.7524 35.2967H35.4823V35.5117H35.759C35.7988 35.5117 35.832 35.5017 35.8436 35.475C35.8515 35.4537 35.8555 35.4311 35.8552 35.4083C35.8566 35.3851 35.8532 35.3618 35.8452 35.34Z" fill="white"/>
<path d="M36.4062 36.1049V35.0547H37.2946V35.3014H36.7211V35.4531H37.273V35.7032H36.7211V35.8599H37.3012V36.1049H36.4062Z" fill="white"/>
<path d="M38.4335 35.6744C38.396 35.7121 38.3507 35.7411 38.301 35.7595C38.2512 35.7779 38.198 35.7853 38.1452 35.7811H37.8236V36.1145H37.4922V35.0643H38.1468C38.1959 35.0594 38.2454 35.0646 38.2924 35.0795C38.3394 35.0944 38.3829 35.1187 38.4203 35.151C38.4549 35.1872 38.4813 35.2306 38.4976 35.2781C38.5139 35.3256 38.5198 35.376 38.5147 35.426C38.5206 35.5163 38.4915 35.6053 38.4335 35.6744ZM38.175 35.3527C38.165 35.3352 38.15 35.3211 38.132 35.3122C38.114 35.3033 38.0938 35.3 38.0739 35.3027H37.8154V35.5444H38.0673C38.0877 35.5472 38.1085 35.5442 38.1272 35.5356C38.146 35.5271 38.162 35.5133 38.1733 35.4961C38.183 35.4741 38.187 35.45 38.1849 35.426C38.1887 35.4006 38.1853 35.3746 38.175 35.351V35.3527Z" fill="white"/>
<path d="M39.7404 35.5703C39.7404 35.9404 39.5647 36.1221 39.1835 36.1221C38.8023 36.1221 38.625 35.9337 38.625 35.5753C38.625 35.2169 38.7907 35.0352 39.1835 35.0352C39.5763 35.0352 39.7404 35.2202 39.7404 35.5703ZM39.4172 35.5703C39.4172 35.3636 39.3608 35.2769 39.1835 35.2769C39.0062 35.2769 38.9515 35.3602 38.9515 35.5703C38.9515 35.7803 39.031 35.8687 39.1835 35.8687C39.336 35.8687 39.4172 35.812 39.4172 35.5769V35.5703Z" fill="white"/>
<path d="M40.8419 35.5852C40.8282 35.6101 40.8095 35.6319 40.7869 35.6491C40.7644 35.6663 40.7385 35.6786 40.711 35.6852L40.9646 36.107H40.6066L40.4226 35.7503H40.2055V36.107H39.8906V35.0568H40.5535C40.606 35.0509 40.659 35.0576 40.7083 35.0764C40.7576 35.0953 40.8017 35.1257 40.8369 35.1651C40.8807 35.231 40.9017 35.3095 40.8966 35.3885C40.8959 35.4578 40.877 35.5256 40.8419 35.5852ZM40.5635 35.3402C40.5469 35.3068 40.5154 35.2968 40.4707 35.2968H40.2005V35.5119H40.4773C40.5154 35.5119 40.5519 35.5019 40.5618 35.4752C40.5698 35.4539 40.5738 35.4313 40.5734 35.4085C40.5749 35.3853 40.5715 35.362 40.5635 35.3402Z" fill="white"/>
<path d="M41.6395 35.3064V36.1049H41.308V35.3064H40.9766V35.0547H41.9709V35.3064H41.6395Z" fill="white"/>
<path d="M44.6048 40.1758H7.97656V40.5142H44.6048V40.1758Z" fill="white"/>
<path d="M44.614 40.457H7.96094V41.4339H44.614V40.457Z" fill="#E7262B"/>
<path d="M28.5867 20.4894H28.2088V21.1328H28V19.5441H28.5221C28.669 19.5351 28.8144 19.5782 28.9331 19.6658C28.9818 19.7108 29.0199 19.7662 29.0446 19.8279C29.0693 19.8897 29.0799 19.9562 29.0756 20.0226C29.0775 20.1151 29.0496 20.2057 28.996 20.281C28.9399 20.3573 28.8627 20.4153 28.774 20.4477L29.1452 21.1145V21.1278H28.9215L28.5867 20.4894ZM28.2154 20.3227H28.5403C28.6299 20.3275 28.718 20.2984 28.7872 20.241C28.8177 20.2141 28.8417 20.1807 28.8575 20.1431C28.8733 20.1056 28.8804 20.065 28.8784 20.0243C28.881 19.9826 28.8745 19.9408 28.8594 19.9019C28.8442 19.863 28.8207 19.8279 28.7905 19.7992C28.7197 19.7413 28.6296 19.7127 28.5386 19.7192H28.2088L28.2154 20.3227Z" fill="#333333"/>
<path d="M30.2169 20.4021H29.5291V20.9639H30.3246V21.1306H29.3203V19.5469H30.3147V19.7136H29.5291V20.2254H30.2136L30.2169 20.4021Z" fill="#333333"/>
<path d="M31.0635 20.8572L31.5176 19.5469H31.7446L31.1596 21.1356H30.974L30.3906 19.5469H30.6177L31.0635 20.8572Z" fill="#333333"/>
<path d="M32.129 21.1356H31.9219V19.5469H32.129V21.1356Z" fill="#333333"/>
<path d="M33.3616 20.4021H32.6771V20.9639H33.4709V21.1306H32.4766V19.5469H33.4709V19.7136H32.6771V20.2254H33.3616V20.4021Z" fill="#333333"/>
<path d="M34.0277 20.6355L34.0592 20.8438L34.104 20.6555L34.4155 19.5469H34.5912L34.8962 20.6555L34.9393 20.8472L34.9724 20.6338L35.2177 19.5469H35.4265L35.0437 21.1356H34.8547L34.5233 19.9786L34.4984 19.8569L34.4735 19.9786L34.1421 21.1356H33.9532L33.5703 19.5469H33.7791L34.0277 20.6355Z" fill="#333333"/>
<path d="M36.0808 20.4259C35.9381 20.3923 35.8046 20.3274 35.6897 20.2358C35.6508 20.201 35.6198 20.158 35.5989 20.11C35.578 20.0619 35.5677 20.0099 35.5687 19.9574C35.5678 19.8976 35.5808 19.8384 35.6067 19.7846C35.6326 19.7308 35.6707 19.6838 35.7179 19.6474C35.8287 19.5616 35.966 19.5179 36.1057 19.524C36.2059 19.5228 36.305 19.5445 36.3957 19.5874C36.4753 19.6238 36.5435 19.6815 36.5929 19.7541C36.6383 19.8287 36.6607 19.9151 36.6576 20.0024H36.4487C36.4506 19.96 36.4434 19.9177 36.4277 19.8784C36.4119 19.839 36.3881 19.8034 36.3576 19.7741C36.2851 19.7156 36.1935 19.6865 36.1007 19.6924C36.0153 19.6874 35.9306 19.7114 35.8604 19.7607C35.8318 19.783 35.8091 19.812 35.7941 19.8451C35.7791 19.8782 35.7722 19.9144 35.7742 19.9508C35.7738 19.983 35.7809 20.0149 35.795 20.0439C35.8091 20.0729 35.8298 20.0981 35.8554 20.1175C35.9394 20.1763 36.034 20.2182 36.1339 20.2408C36.2415 20.2683 36.3451 20.3098 36.4421 20.3642C36.5101 20.4009 36.5672 20.4549 36.6078 20.5209C36.6456 20.5842 36.6646 20.6571 36.6625 20.731C36.6644 20.7908 36.6516 20.8503 36.6253 20.904C36.599 20.9578 36.56 21.0043 36.5117 21.0394C36.3956 21.1226 36.2547 21.1638 36.1123 21.156C36.0079 21.1565 35.9046 21.1349 35.809 21.0927C35.7226 21.0586 35.6474 21.0009 35.5919 20.926C35.541 20.8541 35.5142 20.7676 35.5157 20.6793H35.7245C35.7227 20.7229 35.7313 20.7663 35.7498 20.8058C35.7683 20.8452 35.796 20.8796 35.8306 20.906C35.9124 20.965 36.0117 20.9944 36.1123 20.9893C36.2018 20.9952 36.2907 20.9718 36.3659 20.9227C36.3941 20.9011 36.4166 20.873 36.4316 20.8408C36.4466 20.8086 36.4536 20.7732 36.4521 20.7376C36.4541 20.7032 36.4478 20.6689 36.4336 20.6375C36.4195 20.6061 36.3979 20.5787 36.3709 20.5576C36.2826 20.4969 36.1844 20.4524 36.0808 20.4259Z" fill="#333333"/>
<path d="M20.4298 22.3984L19.1719 23.9071H19.2614C19.8592 23.906 20.4411 24.1012 20.9186 24.4632C21.396 24.8252 21.7429 25.3341 21.9064 25.9126C22.0269 25.2057 22.317 24.539 22.7517 23.9705C22.1611 23.2141 21.3487 22.6641 20.4298 22.3984Z" fill="url(#paint1_linear_9628_527)"/>
<path d="M16.4062 19.4531V21.0402H20.5678L21.2439 19.4531H16.4062Z" fill="url(#paint2_linear_9628_527)"/>
<path d="M22.7266 23.9775L25.196 19.4531H27.188L24.7949 23.7641L22.7266 23.9775Z" fill="url(#paint3_linear_9628_527)"/>
<path d="M26.2304 22.2422C25.5569 22.2422 24.8925 22.3985 24.2889 22.6989C23.6852 22.9993 23.1586 23.4358 22.75 23.9743C23.1833 24.5396 23.4729 25.2029 23.5936 25.9064C23.7676 25.2921 24.148 24.7576 24.67 24.3941C25.1921 24.0305 25.8233 23.8604 26.4561 23.9127C27.089 23.965 27.6841 24.2365 28.1401 24.681C28.5961 25.1254 28.8847 25.7152 28.9566 26.3498C29.0147 25.526 29.3018 24.7351 29.7853 24.0676C29.3786 23.5021 28.8443 23.0418 28.2263 22.7245C27.6083 22.4072 26.9242 22.2419 26.2304 22.2422Z" fill="url(#paint4_linear_9628_527)"/>
<path d="M30.5905 26.6715C30.5913 26.5662 30.5979 26.461 30.6104 26.3564C30.5531 25.5324 30.2659 24.7414 29.7818 24.0742C29.2983 24.7418 29.0112 25.5326 28.9531 26.3564C28.9796 26.5656 28.9796 26.7774 28.9531 26.9866C29.0112 27.8104 29.2983 28.6012 29.7818 29.2688C30.2659 28.6016 30.5531 27.8105 30.6104 26.9866C30.5979 26.882 30.5913 26.7768 30.5905 26.6715Z" fill="#333333"/>
<path d="M33.3423 22.2422C32.6488 22.2427 31.9653 22.4083 31.3477 22.7256C30.7301 23.0429 30.196 23.5028 29.7891 24.0676C30.2732 24.7348 30.5604 25.5258 30.6177 26.3498C30.6785 25.8212 30.8899 25.3215 31.2265 24.9109C31.5632 24.5004 32.0107 24.1966 32.5151 24.0361C33.0195 23.8756 33.5593 23.8652 34.0695 24.0063C34.5796 24.1473 35.0383 24.4338 35.3903 24.8311C35.7422 25.2284 35.9724 25.7196 36.0532 26.2456C36.1339 26.7715 36.0617 27.3097 35.8452 27.7953C35.6288 28.2809 35.2773 28.6932 34.8333 28.9824C34.3892 29.2716 33.8714 29.4255 33.3423 29.4255H33.3175V31.0926H33.3423C34.5085 31.0926 35.6268 30.6266 36.4514 29.7972C37.2759 28.9678 37.7392 27.8428 37.7392 26.6699C37.7392 25.4969 37.2759 24.372 36.4514 23.5426C35.6268 22.7131 34.5085 22.2472 33.3423 22.2472V22.2422Z" fill="#333333"/>
<path d="M30.6099 26.9805C30.5526 27.8045 30.2654 28.5955 29.7812 29.2627C30.1855 29.8242 30.7157 30.2819 31.3287 30.5988C31.9418 30.9157 32.6204 31.0827 33.3097 31.0864V29.4194C32.6415 29.4137 31.9983 29.1627 31.5012 28.7136C31.004 28.2645 30.687 27.6481 30.6099 26.9805Z" fill="url(#paint5_linear_9628_527)"/>
<path d="M18.25 22.3771L20.6929 19.4531H22.9369L19.1748 23.9075L18.25 22.3771Z" fill="#333333"/>
<path d="M23.5918 25.9064C23.4716 25.202 23.1813 24.538 22.7465 23.9727C22.6436 24.1092 22.5479 24.2511 22.4598 24.3978L22.4482 24.4161C22.3182 24.6396 22.2074 24.8739 22.1167 25.1163L22.1068 25.1479C22.016 25.3969 21.9478 25.6535 21.903 25.9148C22.0421 26.4051 22.0421 26.9248 21.903 27.4151C21.7234 28.0565 21.3193 28.6109 20.7652 28.976C20.211 29.3412 19.5443 29.4924 18.8881 29.4018C18.2318 29.3112 17.6302 28.9849 17.1944 28.4831C16.7585 27.9814 16.5178 27.3379 16.5167 26.6716C16.5167 26.6333 16.5167 26.5966 16.5167 26.5583H14.8594C14.8594 26.5966 14.8594 26.6333 14.8594 26.6716C14.8584 27.5955 15.1453 28.4964 15.6799 29.2476C16.2144 29.9988 16.9697 30.5626 17.8393 30.8596C18.709 31.1566 19.6494 31.1719 20.5282 30.9033C21.4069 30.6347 22.1799 30.0957 22.7382 29.3622C23.1716 28.7965 23.4622 28.1336 23.5851 27.4301C23.4437 26.9345 23.4437 26.4088 23.5851 25.9131L23.5918 25.9064ZM22.1002 28.1803C22.1002 28.192 22.1002 28.202 22.1118 28.212C22.1532 28.322 22.1996 28.4304 22.2493 28.5354C22.1447 28.3126 22.0593 28.0811 21.9941 27.8436C22.0289 27.9586 22.072 28.0703 22.1035 28.1803H22.1002ZM21.9742 27.7669C21.9444 27.6518 21.9179 27.5335 21.898 27.4151C21.9212 27.5335 21.9477 27.6518 21.9775 27.7669H21.9742ZM22.2808 28.6004C22.3322 28.7038 22.3852 28.8071 22.4465 28.9071C22.3885 28.8121 22.3355 28.7088 22.2841 28.6054L22.2808 28.6004Z" fill="#333333"/>
<path d="M26.2259 29.4244C25.6298 29.4244 25.0499 29.2292 24.5738 28.8682C24.0978 28.5073 23.7516 28.0003 23.5874 27.4239C23.4651 28.1267 23.1751 28.7891 22.7422 29.3544C23.1569 29.9012 23.6932 30.3428 24.3079 30.6438C24.9227 30.9449 25.599 31.097 26.2828 31.0881C26.9665 31.0792 27.6386 30.9095 28.2455 30.5925C28.8523 30.2755 29.3769 29.8201 29.7775 29.2627C29.294 28.5951 29.0068 27.8043 28.9488 26.9805C28.872 27.6529 28.5521 28.2734 28.05 28.724C27.548 29.1746 26.8987 29.4239 26.2259 29.4244Z" fill="url(#paint6_linear_9628_527)"/>
</g>
<defs>
<linearGradient id="paint0_linear_9628_527" x1="13.2069" y1="39.8984" x2="39.5326" y2="13.7282" gradientUnits="userSpaceOnUse">
<stop stop-color="#555555"/>
<stop offset="0.34" stop-color="#757575"/>
<stop offset="0.59" stop-color="#878787"/>
<stop offset="0.66" stop-color="#757575"/>
<stop offset="0.77" stop-color="#636363"/>
<stop offset="0.87" stop-color="#585858"/>
<stop offset="1" stop-color="#555555"/>
</linearGradient>
<linearGradient id="paint1_linear_9628_527" x1="19.5961" y1="23.1669" x2="22.5149" y2="24.8425" gradientUnits="userSpaceOnUse">
<stop stop-color="#121212"/>
<stop offset="0.05" stop-color="#161616"/>
<stop offset="0.32" stop-color="#2B2B2B"/>
<stop offset="0.5" stop-color="#333333"/>
<stop offset="0.74" stop-color="#262626"/>
<stop offset="1" stop-color="#121212"/>
</linearGradient>
<linearGradient id="paint2_linear_9628_527" x1="21.2439" y1="20.2466" x2="16.4062" y2="20.2466" gradientUnits="userSpaceOnUse">
<stop stop-color="#121212"/>
<stop offset="0.53" stop-color="#2B2B2B"/>
<stop offset="1" stop-color="#444445"/>
</linearGradient>
<linearGradient id="paint3_linear_9628_527" x1="24.9573" y1="23.9775" x2="24.9573" y2="19.4531" gradientUnits="userSpaceOnUse">
<stop stop-color="#121212"/>
<stop offset="0.37" stop-color="#1A1A1A"/>
<stop offset="0.94" stop-color="#303030"/>
<stop offset="1" stop-color="#333333"/>
</linearGradient>
<linearGradient id="paint4_linear_9628_527" x1="29.782" y1="24.296" x2="22.7483" y2="24.296" gradientUnits="userSpaceOnUse">
<stop stop-color="#121212"/>
<stop offset="0.15" stop-color="#191919"/>
<stop offset="0.65" stop-color="#2C2C2C"/>
<stop offset="1" stop-color="#333333"/>
</linearGradient>
<linearGradient id="paint5_linear_9628_527" x1="29.7812" y1="29.0343" x2="33.3097" y2="29.0343" gradientUnits="userSpaceOnUse">
<stop stop-color="#121212"/>
<stop offset="1" stop-color="#333333"/>
</linearGradient>
<linearGradient id="paint6_linear_9628_527" x1="22.7422" y1="29.0326" x2="29.7775" y2="29.0326" gradientUnits="userSpaceOnUse">
<stop stop-color="#121212"/>
<stop offset="1" stop-color="#333333"/>
</linearGradient>
<clipPath id="clip0_9628_527">
<rect width="42.7321" height="36" fill="white" transform="translate(5 8.5)"/>
</clipPath>
</defs>
</svg>
