<svg width="120" height="53" viewBox="0 0 120 53" fill="#55596D" xmlns="http://www.w3.org/2000/svg">
<g clip-path="url(#clip0_9628_632)">
<path d="M62.7697 17.6475C61.5583 17.6272 60.3554 17.8544 59.2344 18.3151C58.1133 18.7759 57.0976 19.4606 56.2492 20.3276C55.4007 21.1946 54.7372 22.2256 54.2991 23.358C53.861 24.4903 53.6576 25.7001 53.7011 26.9138V44.4931L58.2615 41.8484V34.1558C59.5859 35.1568 61.2092 35.6793 62.8674 35.6382C64.0662 35.6654 65.2582 35.4516 66.3732 35.0095C67.4882 34.5674 68.5035 33.9058 69.3593 33.0639C70.215 32.222 70.8938 31.2168 71.3556 30.1077C71.8175 28.9985 72.0529 27.8078 72.0481 26.6059C72.0433 25.4041 71.7984 24.2153 71.3278 23.1099C70.8571 22.0044 70.1703 21.0047 69.3079 20.1697C68.4455 19.3347 67.4249 18.6813 66.3065 18.2481C65.188 17.8149 63.9943 17.6107 62.7958 17.6475H62.7697ZM62.7697 31.1193C61.8858 31.1193 61.0217 30.8566 60.2868 30.3643C59.5518 29.8721 58.979 29.1724 58.6407 28.3539C58.3025 27.5353 58.214 26.6346 58.3864 25.7656C58.5589 24.8967 58.9845 24.0984 59.6095 23.4719C60.2346 22.8454 61.0309 22.4188 61.8978 22.2459C62.7648 22.0731 63.6634 22.1618 64.48 22.5008C65.2966 22.8399 65.9946 23.4141 66.4857 24.1508C66.9768 24.8875 67.2389 25.7536 67.2389 26.6396C67.2688 27.2358 67.1737 27.8316 66.9596 28.3887C66.7456 28.9458 66.4175 29.4517 65.9963 29.8738C65.5752 30.2959 65.0705 30.6248 64.5147 30.8394C63.959 31.0539 63.3645 31.1493 62.7697 31.1193ZM93.9888 12.0184L98.5492 9.36719V34.9591H93.9888V12.0184ZM82.6139 17.6475C80.8421 17.6655 79.1152 18.2087 77.6507 19.2087C76.1863 20.2087 75.0499 21.6207 74.3845 23.2669C73.7192 24.913 73.5548 26.7197 73.9119 28.4594C74.2691 30.1991 75.1319 31.7939 76.3916 33.043C77.6513 34.2921 79.2516 35.1396 80.991 35.4787C82.7303 35.8178 84.5309 35.6334 86.1659 34.9487C87.8009 34.2641 89.1972 33.1097 90.1789 31.6311C91.1605 30.1524 91.6838 28.4157 91.6826 26.6396C91.6888 25.4498 91.4581 24.2707 91.0042 23.1714C90.5502 22.0721 89.8821 21.0745 89.0388 20.2372C88.1955 19.3999 87.1941 18.7395 86.0932 18.2949C84.9922 17.8502 83.8138 17.6301 82.6269 17.6475H82.6139ZM82.6139 31.1193C81.73 31.1193 80.8659 30.8566 80.131 30.3643C79.396 29.8721 78.8232 29.1724 78.4849 28.3539C78.1467 27.5353 78.0582 26.6346 78.2306 25.7656C78.403 24.8967 78.8287 24.0984 79.4537 23.4719C80.0788 22.8454 80.8751 22.4188 81.742 22.2459C82.6089 22.0731 83.5076 22.1618 84.3242 22.5008C85.1408 22.8399 85.8388 23.4141 86.3299 24.1508C86.821 24.8875 87.0831 25.7536 87.0831 26.6396C87.1128 27.2346 87.018 27.8293 86.8048 28.3855C86.5915 28.9416 86.2646 29.4468 85.8449 29.8687C85.4252 30.2907 84.9221 30.6199 84.3679 30.8352C83.8137 31.0506 83.2207 31.1474 82.6269 31.1193H82.6139ZM119.449 18.3266L108.784 42.7626H103.911L107.605 34.5868L100.439 18.3266H105.416L110.12 28.9904L114.589 18.3266H119.449Z" />
<path d="M39.434 23.101L30.0722 28.5211L30.1178 28.2664V28.0379V27.6656V27.6069V27.1498V26.2878V25.7653L30.0787 25.2887L30.0331 24.7728L29.994 24.4854L29.9223 23.9826L29.8311 23.4928L29.7334 23.0096L29.6161 22.5329L29.538 22.239L29.4011 21.7819L29.2513 21.3379L29.1145 20.9722L28.9386 20.5347L28.7497 20.1167L28.5542 19.7053L28.3392 19.2939L28.1047 18.8956V18.8564L27.8571 18.4646L27.5965 18.0728L27.3229 17.694L27.0297 17.3153L26.717 16.9365L26.6779 16.8973L26.3522 16.5316L26.0004 16.166L25.6356 15.8003L25.2447 15.4411L24.8342 15.0819L24.3977 14.7228L23.9547 14.3832L23.4661 14.0175L22.9319 13.6453L22.5345 13.3775L21.9221 12.9858L21.2315 12.5613L21.0035 12.4241L20.1631 11.9213L19.9481 11.8038L19.4204 11.4903L0.46875 0.5V7.38283L9.83057 12.7964L9.58952 12.8878L9.38105 12.9792L9.04227 13.1359L8.63836 13.3514L8.20838 13.5996L7.89566 13.7824L7.45917 14.0632L7.06177 14.3375L6.6383 14.6379L6.41028 14.8142L6.01288 15.1277L5.6285 15.4476L5.26367 15.7807L4.91187 16.1137L4.69688 16.3292L4.37114 16.6753L4.05843 17.0345L3.81086 17.3349L3.52421 17.7006L3.2571 18.0728L2.99651 18.4515L2.75546 18.8433L2.52092 19.2482V19.2809L2.30593 19.6923L2.09746 20.1167L1.90853 20.5477L1.72611 20.9853L1.56324 21.4424V21.5011L1.40689 21.9713L1.27007 22.4545L1.13978 22.9508L1.02251 23.4667V23.5124L0.918275 24.0479L0.827066 24.6095L0.748888 25.1646L0.683741 25.7719L0.625107 26.4249V26.9081L0.586017 27.633V28.4427V52.4804L6.53406 49.0455V38.2315L6.72951 38.3948L6.91192 38.5319L7.22464 38.7474L7.60901 38.989L8.04551 39.2437L8.35822 39.42L8.82728 39.6616L9.25075 39.8706L9.72633 40.0861L9.9739 40.1906L10.4495 40.3799L10.9251 40.5497L11.3941 40.7064L11.8632 40.8436L12.1499 40.922L12.6189 41.033L13.0815 41.1244L13.4593 41.1897L13.9284 41.255L14.391 41.3072L14.834 41.3399H15.303H15.7982H16.2607L16.7363 41.3072L17.2054 41.255L17.681 41.1897L18.163 41.1048H18.2086L18.6973 41.0003L19.1859 40.8828L19.6875 40.7391L20.2022 40.5824L20.7169 40.3995L21.2511 40.1971L21.7592 39.9881L22.326 39.74L22.9189 39.4592L23.3423 39.2502L23.9938 38.9172L24.7105 38.5319L24.9385 38.4078L25.7984 37.9181L26.0004 37.8005L26.5346 37.4936L45.4798 26.5294L39.434 23.101ZM15.4268 35.3909C13.6755 35.3922 11.963 34.8728 10.5062 33.8984C9.04938 32.9241 7.91357 31.5385 7.24245 29.917C6.57134 28.2955 6.39508 26.5109 6.73596 24.789C7.07685 23.0671 7.91957 21.4852 9.15751 20.2434C10.3955 19.0016 11.973 18.1557 13.6906 17.8128C15.4083 17.4698 17.1888 17.6452 18.8069 18.3167C20.4251 18.9882 21.8083 20.1257 22.7814 21.5852C23.7545 23.0448 24.274 24.7608 24.274 26.5163C24.274 28.8689 23.3421 31.1252 21.6831 32.7893C20.0241 34.4534 17.7738 35.3891 15.4268 35.3909Z" />
</g>
<defs>
<clipPath id="clip0_9628_632">
<rect width="119" height="52" transform="translate(0.421875 0.5)"/>
</clipPath>
</defs>
</svg>
