<svg width="48" height="71" viewBox="0 0 48 71" fill="#55596D" xmlns="http://www.w3.org/2000/svg">
<path d="M43.2872 21.6257C42.9671 10.1544 33.4343 1.13735 21.963 1.45749C10.954 1.75983 2.11485 10.6168 1.8125 21.6257V37.8457C1.8125 38.2192 2.13263 38.5037 2.48833 38.5037H42.6292C42.9849 38.5037 43.2872 38.2014 43.2872 37.8457V21.6257Z" fill="#0B1029"/>
<path d="M39.0416 20.9169C38.3302 19.1561 32.2833 20.4722 23.8532 24.9896C15.423 29.507 10.7989 34.5224 11.5281 36.0341C12.2573 37.5637 20.7408 36.4966 27.5347 32.7973C36.7117 27.7107 39.9308 23.0688 39.0594 20.9524" />
<path d="M19.2583 33.5961C17.8711 33.6138 16.5194 33.0803 15.5234 32.1021C17.9778 29.7545 20.7522 27.7626 23.7579 26.1797C24.0958 26.8555 24.2737 27.5847 24.2737 28.3317C24.3626 31.1773 22.1039 33.5249 19.2583 33.5961Z" fill="#0B1029"/>
<path d="M6.26308 37.3834C6.70771 37.8636 7.25905 38.2015 7.88152 38.3971L8.11273 38.4861H2.45708C2.0836 38.4861 1.78125 38.1837 1.78125 37.828V21.6081C1.78125 14.9209 5.00034 8.66055 10.4248 4.76562L10.1758 5.05019C9.6956 5.72602 9.62445 6.61527 10.0335 7.34446C10.2647 7.94915 9.58889 8.62498 9.25097 8.9629C7.22347 11.0437 6.06745 13.8182 6.01409 16.7172C6.03188 19.545 6.45872 22.355 7.25905 25.0761C7.47247 25.9476 7.63253 26.8369 7.72146 27.7439C9.07312 26.6057 10.4959 25.503 11.9365 24.507C14.2486 22.9775 16.1516 21.8393 17.8056 20.95C21.5227 18.9581 22.4653 19.1715 19.5485 20.8611C16.8096 22.4262 14.213 24.258 11.8298 26.3211C4.25337 33.1506 5.33826 36.5297 6.17416 37.33" />
<path d="M43.2903 37.7955C43.2903 38.1512 42.9879 38.4536 42.6322 38.4536H16.3281L16.7194 38.3646C20.7922 37.4754 24.7049 35.9637 28.333 33.8828C36.443 29.6855 41.7607 24.2611 43.1835 20.3128V20.1172C43.1835 20.1883 43.1835 20.2417 43.1835 20.3128C43.1835 20.633 43.1835 21.1487 43.1835 21.54V37.76" />
<path d="M13.4844 2.95337C23.7997 -2.04423 36.2314 2.25975 41.229 12.5929C41.7982 13.7667 42.2606 14.9938 42.5985 16.2388C42.2784 15.9898 41.9227 15.7764 41.5492 15.6163C40.82 15.3318 40.073 15.1183 39.2905 14.9938C37.8855 14.8693 36.516 14.4959 35.2533 13.8912C32.6033 12.4506 29.0819 6.2436 23.444 4.60738C21.6299 4.07382 19.6914 3.96711 17.8239 4.30503C17.3615 4.39395 16.4367 4.48288 16.0988 4.03825C15.4229 3.16679 14.9072 2.65102 13.8756 2.82887L13.4844 2.95337Z" />
<path d="M3.806 55.6696H6.81167V45.8701H10.6177V43.2734H0V45.8701H3.806V55.6696Z" />
<path d="M11.5416 55.6696L12.2352 53.8555H17.1972L17.873 55.6696H21.1811L16.1123 43.2734H13.5868L8.30469 55.6696H11.5416ZM14.7784 46.9905L16.2902 51.3834H13.16L14.7784 46.9905Z" />
<path d="M27.0883 55.8808C29.0803 55.9697 30.9833 55.1338 32.2816 53.6221L29.7739 51.7547C29.1336 52.6262 28.1021 53.1064 27.0172 53.053C25.0253 53.053 23.9048 51.5235 23.9048 49.4426C23.6736 47.6641 24.9363 46.0457 26.7149 45.8145C26.8571 45.7967 26.9994 45.7967 27.1417 45.7967C28.1554 45.7789 29.098 46.2769 29.6316 47.1484L32.0859 45.3876C30.9299 43.8759 29.1158 42.9867 27.2128 43.04C23.887 42.8266 21.0236 45.3343 20.8102 48.6601C20.7924 48.9447 20.7924 49.247 20.8102 49.5316C20.6324 52.8574 23.1756 55.6852 26.4836 55.8808C26.6971 55.8808 26.8927 55.8808 27.0883 55.8808Z" />
<path d="M38.7876 55.8836C42.3801 55.9725 45.3503 53.1269 45.4214 49.5343C45.5103 45.9417 42.6647 42.9716 39.0721 42.9005C35.4796 42.8115 32.5094 45.6571 32.4383 49.2497C32.4383 49.3209 32.4383 49.392 32.4383 49.4809C32.2605 52.8423 34.8571 55.7057 38.2184 55.8836C38.4141 55.8836 38.5919 55.8836 38.7876 55.8836ZM38.7876 45.8172C40.5839 45.8528 42.0067 47.3467 41.9533 49.1252C41.9533 49.2319 41.9355 49.3564 41.9355 49.4631C42.3268 51.2061 41.2419 52.949 39.499 53.3403C37.756 53.7316 36.0131 52.6467 35.6218 50.9037C35.5151 50.4235 35.5151 49.9433 35.6218 49.4631C35.3906 47.6846 36.6534 46.0662 38.4319 45.835C38.5386 45.835 38.6631 45.8172 38.7876 45.8172Z" />
<path d="M11.1677 63.4217C12.2882 62.9771 12.9818 61.8566 12.8928 60.665C12.8928 58.8154 11.4345 57.7305 8.57108 57.7305H3.80469V70.1266H9.19356C12.3415 70.1266 13.871 68.9884 13.871 66.5696C13.9244 64.969 12.7506 63.5995 11.1677 63.4217ZM6.63251 60.167H7.84189C9.28248 60.167 9.86939 60.4516 9.86939 61.3586C9.86939 62.2479 9.30026 62.6569 8.25095 62.6569H6.59694L6.63251 60.167ZM8.44658 67.5656H6.59694V64.969H8.44658C10.065 64.969 10.7586 65.3247 10.7586 66.2495C10.7586 67.1743 10.2784 67.53 8.44658 67.53V67.5656Z" />
<path d="M18.0838 65.129H23.3126V62.6036H18.0838V60.3449H24.3797V57.7305H15.0781V70.1266H24.5042V67.53H18.0838V65.129Z" />
<path d="M29.0078 57.7305H25.9844V70.1266H34.4678V67.53H29.0078V57.7305Z" />
<path d="M38.951 57.7305H35.9453V70.1266H44.4288V67.53H38.951V57.7305Z" />
<path d="M45.741 67.6913V68.8651H45.5276V67.6913H45.1719V67.5312H46.0789V67.6913H45.741ZM47.3594 68.8651V67.9937L47.0571 68.6339H46.8792L46.5769 67.9937V68.9541H46.399V67.6202H46.5769L46.986 68.4383L47.3772 67.6202H47.5551V68.9541L47.3594 68.8651Z" />
</svg>
