<svg width="112" height="30" viewBox="0 0 112 30" fill="none" xmlns="http://www.w3.org/2000/svg">
<path d="M26.8696 13.2721C28.6446 13.2721 29.1821 14.9007 29.1821 15.7985H24.3986C24.3986 14.5314 25.2765 13.2721 26.8735 13.2721H26.8696ZM31.9663 20.8126C31.4597 20.9836 30.9338 21.1391 30.4079 21.2479C29.7892 21.3723 29.1512 21.4423 28.5015 21.4423C26.4017 21.4423 24.7583 20.7388 24.4915 19.0674H33.4474C33.5131 18.7448 33.633 17.9674 33.633 17.1512C33.633 13.3498 31.7498 9.86328 26.9509 9.86328C22.1519 9.86328 19.8047 13.5364 19.8047 17.6565C19.8047 22.4023 23.1071 25.1193 27.7165 25.1193C28.8921 25.1193 29.7505 25.0143 30.4582 24.8705C31.1929 24.7189 32.005 24.4779 32.6894 24.167L31.9663 20.8126Z" fill="white" fill-opacity="0.7"/>
<path d="M96.3891 13.2721C98.1641 13.2721 98.7016 14.9007 98.7016 15.7985H93.9181C93.9181 14.5314 94.7959 13.2721 96.393 13.2721H96.3891ZM101.486 20.8126C100.983 20.9836 100.453 21.1391 99.9274 21.2479C99.3087 21.3723 98.6706 21.4423 98.021 21.4423C95.9212 21.4423 94.2778 20.7388 94.011 19.0674H102.967C103.033 18.7448 103.149 17.9674 103.149 17.1512C103.149 13.3498 101.265 9.86328 96.4665 9.86328C91.6676 9.86328 89.3203 13.5364 89.3203 17.6565C89.3203 22.4023 92.6227 25.1193 97.2321 25.1193C98.4077 25.1193 99.2623 25.0143 99.9738 24.8705C100.709 24.7189 101.521 24.4779 102.205 24.167L101.482 20.8126H101.486Z" fill="white" fill-opacity="0.7"/>
<path d="M35.8203 5.02734V24.8077H40.6772V5.02734H35.8203Z" fill="white" fill-opacity="0.7"/>
<path d="M50.4232 21.4968C48.8454 21.4968 47.8091 19.9304 47.8091 17.505C47.8091 15.5732 48.5052 13.5132 50.4386 13.5132C52.3721 13.5132 52.9715 15.651 52.9715 17.4856C52.9715 19.9226 51.9622 21.5007 50.4232 21.5007V21.4968ZM50.3574 25.1194C54.1471 25.1194 57.9831 22.7212 57.9831 17.3612C57.9831 14.1701 56.1037 9.88672 50.5972 9.88672C45.0906 9.88672 42.8594 14.0379 42.8594 17.6061C42.8594 22.0798 45.9491 25.1194 50.3613 25.1194H50.3574Z" fill="white" fill-opacity="0.7"/>
<path d="M60.0938 10.2109V24.81H64.9507V10.2109H60.0938Z" fill="white" fill-opacity="0.7"/>
<path d="M60.0938 5.03125V8.82095H64.9507V5.03125H60.0938Z" fill="white" fill-opacity="0.7"/>
<path d="M68.8052 6.23949V10.208H66.9375V13.8267H68.8052V19.8086C68.8052 23.0969 70.3018 25.1103 73.7163 25.1103C74.3582 25.1103 75.0813 25.0442 75.7465 24.9431C76.3613 24.8499 76.9104 24.7371 77.1502 24.6594C77.1502 24.6594 77.1154 20.8464 77.1154 20.8308C76.9607 20.8852 75.8586 21.0718 75.4564 21.0718C75.0543 21.0718 74.4858 21.0213 74.0721 20.5937C73.7743 20.2906 73.5655 19.793 73.5655 18.9884V13.8228H76.7055V10.2041H73.5655V5.69922L68.813 6.23949H68.8052Z" fill="white" fill-opacity="0.7"/>
<path d="M80.0396 6.23949V10.208H78.1719V13.8267H80.0396V19.8086C80.0396 23.0969 81.5361 25.1103 84.9507 25.1103C85.5926 25.1103 86.3157 25.0442 86.9808 24.9431C87.5995 24.8499 88.1448 24.7371 88.3845 24.6594C88.3845 24.6594 88.3497 20.8464 88.3497 20.8308C88.1951 20.8852 87.093 21.0718 86.6908 21.0718C86.2886 21.0718 85.7202 21.0213 85.3064 20.5937C85.0087 20.2906 84.7999 19.793 84.7999 18.9884V13.8228H87.9398V10.2041H84.7999V5.69922L80.0435 6.23949H80.0396Z" fill="white" fill-opacity="0.7"/>
<path d="M105.242 22.424C105.242 20.9315 106.445 19.7227 107.93 19.7227C109.415 19.7227 110.617 20.9315 110.617 22.424C110.617 23.9166 109.415 25.1254 107.93 25.1254C106.445 25.1254 105.242 23.9166 105.242 22.424Z" fill="white" fill-opacity="0.7"/>
<path d="M1 24.8293H6.49497C6.86619 24.8293 7.31863 24.8216 7.67052 24.8021C15.1918 24.4135 18.324 19.9358 18.324 14.7701C18.324 8.31401 13.993 4.69922 6.51817 4.69922C4.60015 4.69922 2.89482 4.7653 1 4.92466V24.8293ZM8.02629 20.8881C7.8252 20.9036 7.51971 20.9114 7.32636 20.9114H5.78731V8.75323C6.32095 8.70659 6.99767 8.67161 7.45011 8.67161C10.273 8.67161 13.2815 10.514 13.2815 14.7662C13.2815 19.0185 10.4547 20.6821 8.02629 20.8842V20.8881Z" fill="white" fill-opacity="0.7"/>
</svg>
