<svg width="96" height="30" viewBox="0 0 96 30" fill="none" xmlns="http://www.w3.org/2000/svg">
<path d="M61.7005 20.2016V11.0016C61.7005 8.60156 59.8005 6.85156 57.2005 6.85156C55.3005 6.85156 53.6005 7.75156 52.1005 9.60156H51.9005L51.7005 7.45156C51.6505 7.15156 51.4005 6.90156 51.0505 6.95156H51.0005L45.1505 8.25156C45.0005 8.30156 44.9005 8.45156 44.9505 8.60156C44.9505 8.65156 45.0005 8.70156 45.0005 8.70156L46.2005 10.2516V20.2016L45.2505 21.5516C45.1505 21.7016 45.2005 21.8516 45.3005 21.9516C45.3505 22.0016 45.4005 22.0016 45.5005 22.0016H52.8505C53.0005 22.0016 53.1505 21.8516 53.1505 21.7016C53.1505 21.6516 53.1505 21.6016 53.1005 21.5516L52.1505 20.2516V10.7516C52.7505 10.3516 53.4005 10.1516 54.1005 10.1516C55.2505 10.1516 55.9005 10.8516 55.9005 12.0516V20.1516L54.9005 21.6016C54.8005 21.7516 54.8505 21.9016 55.0005 22.0016C55.0505 22.0516 55.1005 22.0516 55.1505 22.0516H62.5005C62.6505 22.0516 62.8005 21.9516 62.8005 21.7516C62.8005 21.7016 62.8005 21.6016 62.7505 21.5516L61.7005 20.2016Z" fill="white" fill-opacity="0.7"/>
<path d="M36.2516 6.85156C31.9516 6.85156 27.6016 9.45157 27.6016 14.6516C27.6016 19.8516 31.9516 22.4516 36.2516 22.4516C40.5516 22.4516 44.9016 19.8516 44.9016 14.6516C44.9016 9.45157 40.5516 6.85156 36.2516 6.85156ZM36.2516 21.1516C34.6516 21.1516 33.6016 18.2516 33.6016 14.6516C33.6016 11.0516 34.6516 8.15157 36.2516 8.15157C37.8516 8.15157 38.9016 11.0516 38.9016 14.6516C38.9016 18.2516 37.8516 21.1516 36.2516 21.1516Z" fill="white" fill-opacity="0.7"/>
<path d="M78.1008 16.6977C78.1508 16.5977 78.0508 16.4477 77.9508 16.3977C77.8508 16.3977 77.7508 16.3977 77.7008 16.4977C76.5508 17.6977 75.0008 18.4477 73.3008 18.4477C71.9008 18.5477 70.5008 18.0477 69.4508 17.0477L77.3008 13.4477C77.6008 13.2977 77.7508 12.9977 77.7008 12.6477C77.5008 11.9977 77.3008 11.3477 77.0008 10.7477C75.9008 8.54773 73.8508 6.74773 70.8008 6.84773C65.7508 6.99773 62.8008 10.1977 62.9508 14.9977C63.1008 19.5977 66.4008 22.5977 71.1508 22.4477C75.3008 22.2977 77.2508 19.9477 78.1008 16.6977ZM69.2508 8.64773C71.0008 7.94773 72.9008 9.24773 73.4008 12.9477L68.6008 15.8977C67.0008 13.1977 67.5508 9.29773 69.2508 8.64773Z" fill="white" fill-opacity="0.7"/>
<path d="M26.4063 19.8V4.8L27.5562 3.2C27.6562 3.05 27.6063 2.9 27.5063 2.8C27.4563 2.75 27.4062 2.75 27.3562 2.75H21.5063C21.3062 2.75 21.1063 2.85 21.0063 3.05L15.9062 12.1L11.1562 3.05C11.0563 2.85 10.8562 2.75 10.6562 2.75H4.20625C4.05625 2.75 3.90625 2.9 3.90625 3.05C3.90625 3.1 3.90625 3.15 3.95625 3.2L5.20625 5.7V19.4L3.95625 21.6C3.85625 21.75 3.95625 21.9 4.05625 22C4.10625 22 4.15625 22.05 4.20625 22.05H8.80625C8.95625 22.05 9.10625 21.95 9.10625 21.8C9.10625 21.7 9.05625 21.65 9.00625 21.55L7.10625 19.4V8.45L13.0063 20.3C13.1063 20.45 13.2563 20.5 13.4062 20.4C13.4563 20.35 13.5063 20.35 13.5063 20.3L20.0063 8.45V19.8L18.8062 21.55C18.7062 21.7 18.7563 21.85 18.9062 21.95C18.9563 22 19.0062 22 19.0562 22H27.3562C27.5062 22 27.6563 21.85 27.6563 21.7C27.6563 21.65 27.6562 21.6 27.6062 21.55L26.4063 19.8Z" fill="white" fill-opacity="0.7"/>
<path d="M91.7936 7.25H88.1936C88.0436 7.25 87.8936 7.35 87.8936 7.55C87.8936 7.65 87.9436 7.7 87.9936 7.75L89.4436 9.25L86.6436 16.75L83.8436 9L84.9436 7.8C85.0436 7.7 85.0436 7.5 84.9436 7.4C84.8936 7.35 84.7936 7.3 84.7436 7.3H76.9936C76.8436 7.3 76.6936 7.45 76.6936 7.6C76.6936 7.65 76.6936 7.7 76.7436 7.75L77.4936 8.95L83.2436 22.8C83.5436 23.5 83.1936 24.3 82.4936 24.6C81.0936 25.2 80.1936 23.1 79.1936 22.6C78.0936 22 76.7436 22.35 76.0936 23.4C75.4436 24.45 75.7936 25.85 76.8436 26.5C79.4436 28.05 83.5936 27.7 86.1936 21.7L86.8436 20.2L91.0436 9.4L91.9936 7.75C92.0936 7.6 92.0936 7.45 91.9436 7.35C91.9436 7.3 91.8436 7.25 91.7936 7.25Z" fill="white" fill-opacity="0.7"/>
</svg>
