<svg width="56" height="30" viewBox="0 0 56 30" fill="none" xmlns="http://www.w3.org/2000/svg">
<g clip-path="url(#clip0_9657_986)">
<g opacity="0.7">
<path fill-rule="evenodd" clip-rule="evenodd" d="M35.3501 8.53337C35.3501 8.53337 37.0562 8.75727 36.744 10.0597C36.4645 11.2139 35.4816 11.1347 35.0728 11.1017C35.0203 11.0975 34.9773 11.094 34.9465 11.094C34.6753 11.094 33.6883 11.094 31.9381 9.70017L30.3203 12.5289C30.3203 12.5289 32.162 14.462 35.6213 14.462C37.1886 14.462 38.3964 13.9448 39.2479 13.128L38.8127 14.2601H42.7199L43.5997 11.9455H48.4056L49.2855 14.2601H53.1485L47.9831 0.501407H44.1579L40.7868 9.14515C40.7174 6.53721 38.1851 5.8119 36.7913 5.43348C34.9241 4.92425 34.9411 4.37565 34.9488 4.1276L34.9494 4.10615L34.9497 4.08694C34.9497 3.86304 35.1736 3.05259 36.2962 3.05259C37.4188 3.05259 38.8568 4.08694 38.8568 4.08694L40.339 1.34655C40.339 1.34655 38.5856 0 35.8926 0C33.9595 0 31.0425 0.763147 31.0425 4.71764C31.0425 4.71764 30.6388 8.04143 35.3565 8.53653L35.3501 8.53337ZM46.0877 5.52539L47.3617 8.98478H44.6875L46.0877 5.52539Z" fill="white" fill-opacity="0.7"/>
<path d="M37.5444 15.4323L37.5456 15.4291L37.5393 15.4323H37.5444Z" fill="white" fill-opacity="0.7"/>
<path fill-rule="evenodd" clip-rule="evenodd" d="M34.4993 23.3475L37.5444 15.4323H41.1406L46.3975 29.0964H42.67L41.7902 26.7691H36.8928L36.013 29.0964H32.2855L33.1654 26.8006C31.4625 29.0018 28.8262 29.0964 28.8262 29.0964H22.3583V24.3535C21.4848 27.4376 18.6088 29.582 15.1936 29.582C11.0846 29.582 7.75446 26.4758 7.75446 22.3668C7.75446 20.9635 8.14234 19.6769 8.81719 18.5921H6.40161V29.0932H2.76247V18.5921H0V15.4291H9.16723V18.0875C10.5169 16.2837 12.7149 15.1484 15.1967 15.1484C18.612 15.1484 21.4848 17.2928 22.3615 20.3769V15.4291H28.3815C28.3815 15.4291 34.5813 15.5805 34.5813 22.0042C34.5813 22.4835 34.5529 22.9313 34.4993 23.3475ZM11.3164 22.3683C11.3164 24.3676 13.0508 25.9885 15.1921 25.9885C17.3333 25.9885 19.0677 24.3676 19.0677 22.3683C19.0677 20.3689 17.3333 18.748 15.1921 18.748C13.0508 18.748 11.3164 20.3689 11.3164 22.3683ZM27.3048 26.1388C26.6173 26.1388 26.2578 26.019 26.2578 26.019V18.561C26.3417 18.5558 26.4307 18.5445 26.5319 18.5316C26.7387 18.5054 26.9962 18.4727 27.3647 18.4727C27.9134 18.4727 30.7484 18.5925 30.7484 22.2474C30.7484 25.9023 27.9922 26.142 27.3048 26.142V26.1388ZM39.3416 20.3477L37.9414 24.0309H40.7512L39.351 20.3477H39.3416Z" fill="white" fill-opacity="0.7"/>
<path d="M51.0694 15.4338L48.6444 19.0477L46.2194 15.4338H41.8612L46.623 22.5513V29.1011H50.6658V22.5513L55.4276 15.4338H51.0694Z" fill="white" fill-opacity="0.7"/>
<path fill-rule="evenodd" clip-rule="evenodd" d="M2.75444 6.95829C2.50531 6.95829 2.30664 7.16011 2.30664 7.40609C2.30664 7.65206 2.50846 7.85388 2.75444 7.85388H5.86064C6.00885 7.96741 6.20752 8.07463 6.49449 8.16923C6.59225 8.20077 6.68055 8.23861 6.76254 8.27645H2.85535C2.60622 8.27645 2.40755 8.47828 2.40755 8.72425C2.40755 8.97022 2.60938 9.17205 2.85535 9.17205H7.39008C7.4027 9.3108 7.39954 9.45271 7.38378 9.59462H3.40406C3.15493 9.59462 2.95626 9.79644 2.95626 10.0424C2.95626 10.2884 3.15809 10.4902 3.40406 10.4902H7.27656C7.27656 10.629 7.28917 10.7709 7.32701 10.9128H4.08522C3.83609 10.9128 3.63742 11.1146 3.63742 11.3606C3.63742 11.6066 3.83924 11.8084 4.08522 11.8084H7.95141C8.07439 11.9408 8.18792 12.0859 8.28883 12.2309H5.30877C5.05965 12.2309 4.86098 12.4328 4.86098 12.6787C4.86098 12.9247 5.0628 13.1265 5.30877 13.1265H8.7997C8.84574 13.2225 8.88829 13.3137 8.92733 13.3975C8.95242 13.4513 8.97618 13.5023 8.99837 13.5491H7.29548C7.04635 13.5491 6.84768 13.7509 6.84768 13.9969C6.84768 14.2429 7.04951 14.4447 7.29548 14.4447H11.6978C11.8239 14.4447 11.9343 14.3942 12.0163 14.3123H22.9747C23.5013 14.4226 24.0879 14.4889 24.7501 14.4889C30.4327 14.4762 30.9057 9.77121 30.9057 9.77121V0.480998H27.0427V9.09636C27.0427 9.09636 27.0206 11.1051 24.7533 11.1178C22.4859 11.1051 22.4638 9.09636 22.4638 9.09636V0.480998H11.991C11.9122 0.414775 11.8144 0.335938 11.7041 0.335938H7.30179C7.05266 0.335938 6.85399 0.537762 6.85399 0.783735C6.85399 0.865726 6.87922 0.94141 6.91706 1.00763C6.80353 1.14639 6.69631 1.26937 6.62378 1.32298C6.6006 1.33973 6.55218 1.36856 6.48453 1.40885C6.38652 1.46722 6.24811 1.54964 6.08769 1.6541H5.31823C5.06911 1.6541 4.87044 1.85593 4.87044 2.1019C4.87044 2.25327 4.94612 2.38887 5.0628 2.47086C4.90828 2.62538 4.76006 2.79251 4.63392 2.97542H4.09783C3.8487 2.97542 3.65003 3.17724 3.65003 3.42322C3.65003 3.66919 3.85186 3.87101 4.09783 3.87101H4.21766C4.18928 4.00346 4.17036 4.14221 4.17036 4.28412V4.29358H3.41352C3.16439 4.29358 2.96572 4.4954 2.96572 4.74138C2.96572 4.98735 3.16755 5.18918 3.41352 5.18918H4.43525L4.27758 5.61174H2.86481C2.61568 5.61174 2.41701 5.81357 2.41701 6.05954C2.41701 6.30551 2.61884 6.50734 2.86481 6.50734H4.82629C4.93666 6.66186 5.05019 6.81323 5.1511 6.92991H2.76705L2.75444 6.95829ZM7.73242 7.85525H7.73854C7.88594 8.01162 8.04569 8.14936 8.20545 8.27466H16.332C16.4519 8.27466 16.5591 8.32512 16.6411 8.4008H18.6625V7.70703H16.6978C16.6158 7.79848 16.4992 7.85525 16.3667 7.85525H7.73854L7.73557 7.85209L7.73242 7.85525ZM16.6584 6.38281C16.5764 6.47426 16.4565 6.53418 16.3241 6.53418V6.53102H9.4337C9.37378 6.67924 9.3454 6.83061 9.33594 6.9536H16.3588C16.4786 6.9536 16.5858 7.0009 16.6647 7.07658H18.6577V6.38281H16.6584ZM15.3865 3.10708C15.3077 3.0377 15.2036 2.99355 15.0901 2.99355H10.5017C10.4671 2.88318 10.4292 2.74127 10.3945 2.57098H13.8413C13.9801 2.57098 14.0999 2.50791 14.1819 2.41016H18.6599V3.10393H15.3834L15.3865 3.10708ZM9.32812 9.17631C9.42904 9.32137 9.45742 9.42859 9.45742 9.42859C9.93675 9.4412 10.3909 9.50427 10.744 9.59888H15.796C15.9158 9.59888 16.0262 9.64618 16.1082 9.72502H18.6562V9.03125H16.6537C16.5717 9.11955 16.455 9.17631 16.3257 9.17631H9.32812ZM11.2206 10.4954H15.7995C15.9288 10.4954 16.0423 10.4418 16.1243 10.3535H18.7512C18.7985 10.5459 18.8679 10.7855 18.9719 11.0473H15.4053C15.3233 10.9653 15.213 10.918 15.09 10.918H11.0566C11.0976 10.7982 11.1544 10.6436 11.2206 10.4954ZM15.0913 11.8166H10.8877C10.7805 11.9585 10.6953 12.1004 10.6228 12.2392H13.8489C13.9718 12.2392 14.0854 12.2896 14.1674 12.3716H19.7238C19.5441 12.1414 19.3927 11.9049 19.2697 11.6778H15.4161C15.3341 11.763 15.2175 11.8166 15.0913 11.8166ZM12.0197 13.6996C11.9377 13.6145 11.8242 13.564 11.6981 13.564H10.3168C10.3105 13.4379 10.3168 13.296 10.3357 13.1415H13.8456C13.9717 13.1415 14.0853 13.0879 14.1672 13.0059H20.3008C20.5752 13.2581 20.8937 13.4947 21.2626 13.6996H12.0197ZM14.1325 1.78286H18.6609V1.08594H12.0385C11.9566 1.18685 11.8336 1.24992 11.6948 1.24992H9.76172C9.77118 1.43913 9.80902 1.59365 9.8311 1.67249H13.8424C13.9527 1.67249 14.0536 1.71664 14.1325 1.78286ZM8.79448 1.25586C8.80394 1.382 8.83232 1.53021 8.89539 1.67843H8.56742C8.52958 1.53967 8.5012 1.39461 8.49805 1.25586H8.79448ZM9.71686 2.57031H8.93164C9.01363 2.75006 9.09562 2.88882 9.17761 2.99288H9.84931C9.80516 2.80367 9.75786 2.66807 9.71686 2.57031ZM11.6522 3.894H15.0895C15.2251 3.894 15.345 3.83409 15.4269 3.73633H18.6593V4.4301H16.0955C16.0166 4.35757 15.9126 4.31342 15.7959 4.31342H11.3652L11.6459 3.89085L11.6522 3.894ZM15.7943 5.21507H10.8969L10.8937 5.21192C10.7771 5.37274 10.6478 5.5115 10.5059 5.63448H16.3241C16.4407 5.63448 16.548 5.68179 16.6268 5.75432H18.6577V5.06055H16.1317C16.0466 5.15515 15.9299 5.21507 15.7943 5.21507ZM7.10156 6.53516H8.32512C8.43865 6.65499 8.53325 6.7969 8.59632 6.95773H7.24978C7.18355 6.84735 7.11102 6.69598 7.10156 6.53516Z" fill="white" fill-opacity="0.7"/>
</g>
</g>
<defs>
<clipPath id="clip0_9657_986">
<rect width="56" height="30" fill="white"/>
</clipPath>
</defs>
</svg>
